<svg width="327" height="64" viewBox="0 0 327 64" fill="none" xmlns="http://www.w3.org/2000/svg">
<rect width="327" height="64" rx="8" fill="white"/>
<path d="M29.9219 40.1172H27.6455V24.1035H29.9219V40.1172ZM25.9316 27.3994H16.8701V25.5977H25.9316V27.3994ZM16.4482 34.6064C18.2705 34.6064 20.04 34.5742 21.7568 34.5098C23.4736 34.4395 25.0762 34.3164 26.5645 34.1406L26.6963 35.8105C25.1787 36.0566 23.6084 36.2207 21.9854 36.3027C20.3682 36.3848 18.5898 36.4316 16.6504 36.4434L16.4482 34.6064ZM20.4561 35.0986H18.2939V26.9951H20.4561V35.0986ZM24.5078 35.0986H22.3193V26.9951H24.5078V35.0986ZM43.4641 26.7754H33.2512V25.0176H43.4641V26.7754ZM46.1447 33.5605H31.6164V31.7588H46.1447V33.5605ZM39.2805 32.1016H37.0568V28.7529H39.2805V32.1016ZM44.4045 26.1426C44.4045 27.0098 44.3811 27.8008 44.3342 28.5156C44.2873 29.2305 44.1701 30.0244 43.9826 30.8975L41.7414 30.6514C41.9348 29.79 42.0549 29.04 42.1018 28.4014C42.1486 27.7627 42.175 27.0098 42.1809 26.1426V25.0176H44.4045V26.1426ZM44.7736 39.8447H33.3127V38.0342H44.7736V39.8447ZM35.5539 39.3262H33.3127V34.8965H35.5539V39.3262ZM59.3793 32.7607H57.1381V24.0947H59.3793V32.7607ZM61.559 29.3506H58.4652V27.5576H61.559V29.3506ZM59.3793 37.4365H51.0033V38.9131H48.7973V35.9072H57.1469V35.0107H48.7709V33.4023H59.3793V37.4365ZM59.8451 40.0029H48.7973V38.3594H59.8451V40.0029ZM56.1801 27.0215H46.6791V25.3164H56.1801V27.0215ZM51.4428 27.4082C52.2279 27.4082 52.9193 27.5166 53.517 27.7334C54.1146 27.9443 54.5746 28.2461 54.8969 28.6387C55.2191 29.0312 55.3803 29.4941 55.3803 30.0273C55.3803 30.5605 55.2191 31.0264 54.8969 31.4248C54.5746 31.8174 54.1176 32.1191 53.5258 32.3301C52.934 32.541 52.2396 32.6465 51.4428 32.6465C50.6518 32.6465 49.9545 32.541 49.351 32.3301C48.7533 32.1191 48.2904 31.8174 47.9623 31.4248C47.6342 31.0264 47.4701 30.5605 47.4701 30.0273C47.4701 29.4941 47.6342 29.0312 47.9623 28.6387C48.2904 28.2461 48.7533 27.9443 49.351 27.7334C49.9545 27.5166 50.6518 27.4082 51.4428 27.4082ZM51.4428 28.9814C51.0736 28.9814 50.7543 29.0225 50.4848 29.1045C50.2152 29.1865 50.0072 29.3066 49.8607 29.4648C49.7201 29.6172 49.6498 29.8047 49.6498 30.0273C49.6498 30.2441 49.7201 30.4316 49.8607 30.5898C50.0072 30.7422 50.2123 30.8564 50.476 30.9326C50.7396 31.0029 51.0619 31.0381 51.4428 31.0381C51.8178 31.0381 52.1371 31.0029 52.4008 30.9326C52.6703 30.8564 52.8783 30.7422 53.0248 30.5898C53.1771 30.4316 53.2533 30.2441 53.2533 30.0273C53.2533 29.7988 53.1771 29.6084 53.0248 29.4561C52.8783 29.3037 52.6703 29.1865 52.4008 29.1045C52.1313 29.0225 51.8119 28.9814 51.4428 28.9814ZM52.559 26.5205H50.3178V24.0068H52.559V26.5205ZM73.6053 25.3691C73.6053 26.3887 73.3387 27.3379 72.8055 28.2168C72.2723 29.0898 71.5018 29.8223 70.4939 30.4141C69.492 31.0059 68.3143 31.4014 66.9607 31.6006L66.0818 29.7988C67.242 29.6582 68.2439 29.3594 69.0877 28.9023C69.9314 28.4395 70.5672 27.9004 70.9949 27.2852C71.4227 26.6641 71.6365 26.0254 71.6365 25.3691V24.5869H73.6053V25.3691ZM73.992 25.3691C73.992 26.0254 74.2088 26.6641 74.6424 27.2852C75.0818 27.9062 75.7234 28.4453 76.5672 28.9023C77.4168 29.3594 78.4217 29.6582 79.5818 29.7988L78.7117 31.6006C77.3523 31.4014 76.1688 31.0059 75.1609 30.4141C74.1531 29.8223 73.3797 29.0898 72.8406 28.2168C72.3016 27.3438 72.032 26.3945 72.032 25.3691V24.5869H73.992V25.3691ZM73.8777 40.1172H71.6541V34.2373H73.8777V40.1172ZM80.1092 34.6504H65.5193V32.8135H80.1092V34.6504ZM95.2334 34.4922H80.6084V32.6992H95.2334V34.4922ZM93.4668 28.7617H84.6602V30.502H82.4277V27.1445H91.2168V26.1602H82.4014V24.4199H93.4668V28.7617ZM93.7656 31.5479H82.4277V29.8252H93.7656V31.5479ZM89.0283 33.6836H86.8047V30.6338H89.0283V33.6836ZM93.5547 40.0557H91.2959V37.1553H82.2344V35.3975H93.5547V40.0557Z" fill="#13278A"/>
<path d="M112.349 32.5469H109.795V31.3125H112.349V32.5469ZM110.177 39.8125H108.701V25.8203H110.177V39.8125ZM101.287 35.8672H99.8102V27.1875H101.287V35.8672ZM100.959 35.0703C102.058 35.0703 103.143 35.0208 104.216 34.9219C105.289 34.8229 106.378 34.6589 107.482 34.4297L107.662 35.6797C106.542 35.9089 105.433 36.0703 104.334 36.1641C103.24 36.2578 102.115 36.3047 100.959 36.3047H99.8102V35.0703H100.959ZM125.496 33.3906H112.684V32.25H125.496V33.3906ZM123.918 37.4531H115.699V38.9688H114.215V36.4688H122.449V35.4375H114.199V34.3594H123.918V37.4531ZM124.355 39.6562H114.215V38.6094H124.355V39.6562ZM123.879 29.2188H115.801V30.6328H114.332V28.2344H122.395V27.2344H114.293V26.1875H123.879V29.2188ZM124.129 31.3281H114.332V30.2891H124.129V31.3281ZM134.235 26.4766C134.928 26.4661 135.55 26.5833 136.102 26.8281C136.654 27.0677 137.084 27.4089 137.391 27.8516C137.704 28.2891 137.86 28.7943 137.86 29.3672C137.86 29.9297 137.704 30.4323 137.391 30.875C137.084 31.3177 136.654 31.6615 136.102 31.9062C135.55 32.151 134.928 32.2734 134.235 32.2734C133.537 32.2734 132.915 32.151 132.368 31.9062C131.821 31.6615 131.391 31.3177 131.079 30.875C130.766 30.4323 130.61 29.9297 130.61 29.3672C130.61 28.7943 130.766 28.2891 131.079 27.8516C131.391 27.4089 131.821 27.0677 132.368 26.8281C132.915 26.5833 133.537 26.4661 134.235 26.4766ZM134.235 27.6797C133.808 27.6693 133.428 27.7344 133.095 27.875C132.766 28.0156 132.511 28.2161 132.329 28.4766C132.147 28.737 132.055 29.0339 132.055 29.3672C132.055 29.7005 132.147 29.9974 132.329 30.2578C132.511 30.513 132.766 30.7109 133.095 30.8516C133.428 30.987 133.808 31.0547 134.235 31.0547C134.667 31.0547 135.05 30.987 135.384 30.8516C135.717 30.7109 135.977 30.513 136.165 30.2578C136.352 29.9974 136.446 29.7005 136.446 29.3672C136.446 29.0339 136.352 28.737 136.165 28.4766C135.977 28.2161 135.717 28.0156 135.384 27.875C135.055 27.7344 134.673 27.6693 134.235 27.6797ZM135.055 39.4062H133.571V33.7891H135.055V39.4062ZM141.266 39.8281H139.798V25.8359H141.266V39.8281ZM129.626 33.3516C131.329 33.3516 132.949 33.3177 134.485 33.25C136.022 33.1823 137.475 33.0495 138.845 32.8516L138.938 33.9531C137.662 34.1875 136.35 34.3464 135.001 34.4297C133.657 34.513 132.152 34.5651 130.485 34.5859C130.282 34.5911 130.061 34.5938 129.821 34.5938L129.626 33.3516ZM154.062 36.3125H152.585V25.8359H154.062V36.3125ZM156.101 31.5703H153.609V30.3438H156.101V31.5703ZM151.413 28.6562H143.077V27.4688H151.413V28.6562ZM147.249 29.3359C147.916 29.3359 148.504 29.4453 149.015 29.6641C149.53 29.8828 149.932 30.1927 150.218 30.5938C150.504 30.9948 150.648 31.4583 150.648 31.9844C150.648 32.5052 150.504 32.9635 150.218 33.3594C149.932 33.75 149.53 34.0547 149.015 34.2734C148.504 34.4922 147.916 34.6016 147.249 34.6016C146.583 34.6016 145.989 34.4922 145.468 34.2734C144.952 34.0547 144.551 33.75 144.265 33.3594C143.984 32.9635 143.843 32.5052 143.843 31.9844C143.843 31.4583 143.984 30.9948 144.265 30.5938C144.551 30.1927 144.952 29.8828 145.468 29.6641C145.989 29.4453 146.583 29.3359 147.249 29.3359ZM147.249 30.4922C146.859 30.4922 146.512 30.5521 146.21 30.6719C145.908 30.7865 145.676 30.9583 145.515 31.1875C145.353 31.4167 145.273 31.6823 145.273 31.9844C145.273 32.2865 145.353 32.5469 145.515 32.7656C145.676 32.9844 145.908 33.1536 146.21 33.2734C146.512 33.388 146.859 33.4453 147.249 33.4453C147.64 33.4453 147.986 33.388 148.288 33.2734C148.596 33.1536 148.833 32.9844 148.999 32.7656C149.166 32.5469 149.249 32.2865 149.249 31.9844C149.249 31.6823 149.166 31.4167 148.999 31.1875C148.833 30.9583 148.596 30.7865 148.288 30.6719C147.986 30.5521 147.64 30.4922 147.249 30.4922ZM147.991 28.0703H146.515V25.8281H147.991V28.0703ZM154.655 39.5469H145.195V38.3203H154.655V39.5469ZM146.663 38.8281H145.195V35.4922H146.663V38.8281ZM172.809 38.0469H159.996V36.8438H172.809V38.0469ZM167.066 37.2109H165.598V33.4922H167.066V37.2109ZM166.848 27.7734C166.848 28.737 166.585 29.638 166.059 30.4766C165.533 31.3151 164.829 32.0208 163.949 32.5938C163.069 33.1615 162.113 33.5469 161.082 33.75L160.434 32.5234C161.329 32.3724 162.168 32.0599 162.949 31.5859C163.736 31.112 164.363 30.5391 164.832 29.8672C165.306 29.1953 165.543 28.4974 165.543 27.7734V26.7344H166.848V27.7734ZM167.105 27.7734C167.105 28.5026 167.342 29.2031 167.816 29.875C168.296 30.5417 168.928 31.112 169.715 31.5859C170.507 32.0599 171.35 32.3724 172.246 32.5234L171.598 33.75C170.561 33.5417 169.603 33.1562 168.723 32.5938C167.842 32.026 167.139 31.3255 166.613 30.4922C166.092 29.6589 165.832 28.7526 165.832 27.7734V26.7344H167.105V27.7734ZM185.026 39.8594H183.534V25.8203H185.026V39.8594ZM175.682 30.5938H179.463V26.9922H180.916V36.5078H174.205V26.9922H175.682V30.5938ZM179.463 35.2812V31.7656H175.682V35.2812H179.463ZM197.759 39.8125H196.282V25.8203H197.759V39.8125ZM199.93 32.6484H197.376V31.4141H199.93V32.6484ZM194.095 27.3047C194.095 28.7057 193.876 30.0156 193.438 31.2344C193.006 32.4479 192.313 33.5677 191.36 34.5938C190.412 35.6146 189.191 36.4948 187.696 37.2344L186.868 36.0781C188.154 35.4323 189.225 34.6875 190.079 33.8438C190.933 32.9948 191.574 32.0495 192.001 31.0078C192.428 29.9609 192.641 28.8125 192.641 27.5625V27.3047H194.095ZM193.391 28.5391H187.555V27.3047H193.391V28.5391ZM214.787 32.9375H213.31V25.8203H214.787V32.9375ZM216.826 30.1406H214.17V28.9062H216.826V30.1406ZM210.88 32.4766H204.326V26.7344H210.88V32.4766ZM205.787 31.2969H209.435V27.9141H205.787V31.2969ZM205.904 38.25C206.482 38.25 207.06 38.2161 207.638 38.1484C208.222 38.0755 208.776 37.9531 209.302 37.7812L209.521 38.9531C208.938 39.151 208.354 39.2812 207.771 39.3438C207.193 39.4115 206.571 39.4453 205.904 39.4453H205.201V38.25H205.904ZM206.638 38.5781H205.201V34.1641H206.638V38.5781ZM216.099 35.4141H209.037V34.3047H216.099V35.4141ZM212.56 35.8672C213.081 35.8672 213.539 35.9479 213.935 36.1094C214.336 36.2708 214.649 36.5 214.873 36.7969C215.102 37.0885 215.216 37.4349 215.216 37.8359C215.216 38.2318 215.102 38.5755 214.873 38.8672C214.649 39.1641 214.336 39.3932 213.935 39.5547C213.539 39.7161 213.081 39.7969 212.56 39.7969C212.039 39.7969 211.578 39.7161 211.177 39.5547C210.776 39.3932 210.466 39.1641 210.248 38.8672C210.034 38.5755 209.927 38.2318 209.927 37.8359C209.927 37.4349 210.037 37.0885 210.255 36.7969C210.474 36.5 210.782 36.2708 211.177 36.1094C211.578 35.9479 212.039 35.8672 212.56 35.8672ZM212.56 36.8984C212.31 36.8984 212.086 36.9375 211.888 37.0156C211.69 37.0885 211.532 37.1953 211.412 37.3359C211.297 37.4714 211.24 37.638 211.24 37.8359C211.24 38.0182 211.297 38.1823 211.412 38.3281C211.532 38.474 211.69 38.5833 211.888 38.6562C212.086 38.7344 212.31 38.7734 212.56 38.7734C212.821 38.7734 213.05 38.7344 213.248 38.6562C213.446 38.5833 213.599 38.474 213.709 38.3281C213.818 38.1823 213.873 38.0182 213.873 37.8359C213.873 37.638 213.818 37.4714 213.709 37.3359C213.599 37.1953 213.446 37.0885 213.248 37.0156C213.05 36.9375 212.821 36.8984 212.56 36.8984ZM213.31 35.0938H211.857V33.1406H213.31V35.0938ZM221.152 26.625C221.861 26.625 222.496 26.7656 223.059 27.0469C223.626 27.3281 224.072 27.7214 224.395 28.2266C224.723 28.7266 224.887 29.2995 224.887 29.9453C224.887 30.5911 224.723 31.1667 224.395 31.6719C224.072 32.1771 223.626 32.5703 223.059 32.8516C222.496 33.1328 221.861 33.2734 221.152 33.2734C220.439 33.2734 219.801 33.1328 219.238 32.8516C218.676 32.5703 218.233 32.1771 217.91 31.6719C217.587 31.1667 217.426 30.5911 217.426 29.9453C217.426 29.2995 217.585 28.7266 217.902 28.2266C218.225 27.7214 218.668 27.3281 219.23 27.0469C219.798 26.7656 220.439 26.625 221.152 26.625ZM221.152 27.8828C220.72 27.8724 220.329 27.9557 219.98 28.1328C219.637 28.3099 219.366 28.5573 219.168 28.875C218.975 29.1875 218.879 29.5443 218.879 29.9453C218.879 30.3516 218.975 30.7135 219.168 31.0312C219.366 31.3438 219.637 31.5859 219.98 31.7578C220.329 31.9297 220.72 32.0182 221.152 32.0234C221.585 32.0182 221.975 31.9297 222.324 31.7578C222.673 31.5859 222.944 31.3438 223.137 31.0312C223.335 30.7135 223.434 30.3516 223.434 29.9453C223.434 29.5443 223.335 29.1875 223.137 28.875C222.944 28.5573 222.673 28.3099 222.324 28.1328C221.975 27.9557 221.585 27.8724 221.152 27.8828ZM228.215 33.75H226.738V25.8203H228.215V33.75ZM230.254 30.2969H227.801V29.0859H230.254V30.2969ZM221.645 35.0547C221.645 35.7161 221.52 36.349 221.27 36.9531C221.025 37.5573 220.663 38.0964 220.184 38.5703C219.71 39.0443 219.139 39.4089 218.473 39.6641L217.723 38.5547C218.306 38.3464 218.806 38.0547 219.223 37.6797C219.639 37.3047 219.957 36.8906 220.176 36.4375C220.395 35.9792 220.504 35.5182 220.504 35.0547V34.3594H221.645V35.0547ZM221.918 35.0547C221.918 35.5391 222.012 36.013 222.199 36.4766C222.387 36.9401 222.671 37.362 223.051 37.7422C223.431 38.1224 223.897 38.4297 224.449 38.6641L223.809 39.7812C223.137 39.5208 222.577 39.1458 222.129 38.6562C221.686 38.1667 221.361 37.612 221.152 36.9922C220.944 36.3672 220.84 35.7214 220.84 35.0547V34.3594H221.918V35.0547ZM226.785 35.0547C226.785 35.6641 226.676 36.2786 226.457 36.8984C226.238 37.5182 225.905 38.0859 225.457 38.6016C225.014 39.1224 224.465 39.5156 223.809 39.7812L223.168 38.6641C223.715 38.4141 224.176 38.0859 224.551 37.6797C224.926 37.2734 225.207 36.8411 225.395 36.3828C225.587 35.9245 225.684 35.4818 225.684 35.0547V34.3594H226.785V35.0547ZM227.145 35.0547C227.145 35.5495 227.249 36.026 227.457 36.4844C227.671 36.9375 227.986 37.3464 228.402 37.7109C228.819 38.0703 229.324 38.3516 229.918 38.5547L229.176 39.6641C228.499 39.4089 227.921 39.0495 227.441 38.5859C226.962 38.1276 226.603 37.5964 226.363 36.9922C226.129 36.3828 226.012 35.737 226.012 35.0547V34.3594H227.145V35.0547ZM234.44 26.875C235.127 26.875 235.737 27.0781 236.268 27.4844C236.804 27.8906 237.224 28.4635 237.526 29.2031C237.828 29.9427 237.979 30.8047 237.979 31.7891C237.979 32.7786 237.828 33.6432 237.526 34.3828C237.224 35.1224 236.804 35.6953 236.268 36.1016C235.737 36.5026 235.127 36.7031 234.44 36.7031C233.752 36.7031 233.138 36.5026 232.596 36.1016C232.06 35.7005 231.64 35.1302 231.338 34.3906C231.036 33.6458 230.885 32.7786 230.885 31.7891C230.885 30.8047 231.036 29.9427 231.338 29.2031C231.64 28.4635 232.06 27.8906 232.596 27.4844C233.138 27.0781 233.752 26.875 234.44 26.875ZM234.44 28.2031C234.023 28.2031 233.651 28.349 233.323 28.6406C232.995 28.9323 232.742 29.349 232.565 29.8906C232.393 30.4271 232.307 31.0599 232.307 31.7891C232.307 32.513 232.393 33.1458 232.565 33.6875C232.742 34.2292 232.995 34.6458 233.323 34.9375C233.651 35.224 234.023 35.3672 234.44 35.3672C234.857 35.3672 235.229 35.224 235.557 34.9375C235.885 34.6458 236.138 34.2292 236.315 33.6875C236.492 33.1458 236.58 32.513 236.58 31.7891C236.58 31.0599 236.489 30.4271 236.307 29.8906C236.13 29.349 235.88 28.9323 235.557 28.6406C235.239 28.349 234.867 28.2031 234.44 28.2031ZM242.323 39.8594H240.846V25.8203H242.323V39.8594ZM241.495 32.2891H237.51V31.0781H241.495V32.2891ZM248.602 37.1172H247.141V33.0156H248.602V37.1172ZM253.821 37.1172H252.329V33.0156H253.821V37.1172ZM256.884 38.0781H244.071V36.8516H256.884V38.0781ZM250.454 26.6328C251.454 26.6328 252.345 26.7865 253.126 27.0938C253.907 27.3958 254.516 27.8255 254.954 28.3828C255.397 28.9349 255.618 29.5703 255.618 30.2891C255.618 31.013 255.397 31.651 254.954 32.2031C254.516 32.75 253.907 33.1771 253.126 33.4844C252.345 33.7865 251.454 33.9375 250.454 33.9375C249.459 33.9375 248.568 33.7865 247.782 33.4844C247.001 33.1771 246.389 32.75 245.946 32.2031C245.503 31.651 245.282 31.013 245.282 30.2891C245.282 29.5703 245.503 28.9349 245.946 28.3828C246.389 27.8255 247.001 27.3958 247.782 27.0938C248.568 26.7865 249.459 26.6328 250.454 26.6328ZM250.454 27.8359C249.725 27.8307 249.079 27.9297 248.516 28.1328C247.959 28.3307 247.522 28.6172 247.204 28.9922C246.891 29.362 246.735 29.7943 246.735 30.2891C246.735 30.7839 246.891 31.2188 247.204 31.5938C247.522 31.9688 247.962 32.2604 248.524 32.4688C249.087 32.6771 249.73 32.7812 250.454 32.7812C251.173 32.7812 251.813 32.6771 252.376 32.4688C252.938 32.2604 253.378 31.9688 253.696 31.5938C254.014 31.2188 254.173 30.7839 254.173 30.2891C254.173 29.7943 254.014 29.362 253.696 28.9922C253.384 28.6172 252.946 28.3307 252.384 28.1328C251.821 27.9297 251.178 27.8307 250.454 27.8359Z" fill="#27282C"/>
<g clip-path="url(#clip0_1535_18194)">
<path d="M295 18C295.875 18 296.742 18.1724 297.551 18.5075C298.36 18.8425 299.095 19.3336 299.714 19.9526C300.333 20.5717 300.824 21.3066 301.159 22.1154C301.494 22.9243 301.667 23.7912 301.667 24.6667V27.3333H305.667C306.02 27.3333 306.359 27.4738 306.609 27.7239C306.86 27.9739 307 28.313 307 28.6667V44.6667C307 45.0203 306.86 45.3594 306.609 45.6095C306.359 45.8595 306.02 46 305.667 46H284.333C283.98 46 283.641 45.8595 283.391 45.6095C283.14 45.3594 283 45.0203 283 44.6667V28.6667C283 28.313 283.14 27.9739 283.391 27.7239C283.641 27.4738 283.98 27.3333 284.333 27.3333H288.333V24.6667C288.333 22.8986 289.036 21.2029 290.286 19.9526C291.536 18.7024 293.232 18 295 18ZM301.667 31.3333H299V32.6667C299 33.0065 299.131 33.3334 299.364 33.5805C299.597 33.8276 299.916 33.9763 300.255 33.9962C300.594 34.0161 300.929 33.9058 301.189 33.6876C301.45 33.4695 301.617 33.1601 301.657 32.8227L301.667 32.6667V31.3333ZM291 31.3333H288.333V32.6667C288.334 33.0065 288.464 33.3334 288.697 33.5805C288.93 33.8276 289.249 33.9763 289.589 33.9962C289.928 34.0161 290.262 33.9058 290.522 33.6876C290.783 33.4695 290.951 33.1601 290.991 32.8227L291 32.6667V31.3333ZM295 20.6667C293.98 20.6666 292.998 21.0564 292.256 21.7564C291.513 22.4563 291.067 23.4135 291.007 24.432L291 24.6667V27.3333H299V24.6667C299 23.6464 298.61 22.6646 297.91 21.9223C297.21 21.18 296.253 20.7332 295.235 20.6733L295 20.6667Z" fill="url(#paint0_linear_1535_18194)"/>
</g>
<defs>
<linearGradient id="paint0_linear_1535_18194" x1="287.104" y1="19.4081" x2="307" y2="49.5396" gradientUnits="userSpaceOnUse">
<stop stop-color="#49E9B7"/>
<stop offset="1" stop-color="#43CBA1"/>
</linearGradient>
<clipPath id="clip0_1535_18194">
<rect width="32" height="32" fill="white" transform="translate(279 16)"/>
</clipPath>
</defs>
</svg>
