<svg width="327" height="64" viewBox="0 0 327 64" fill="none" xmlns="http://www.w3.org/2000/svg">
<rect width="327" height="64" rx="8" fill="white"/>
<path d="M21.3828 29.9531C21.3828 30.9583 21.2083 31.9427 20.8594 32.9062C20.5104 33.8646 20.0312 34.7188 19.4219 35.4688C18.8125 36.2135 18.1224 36.7734 17.3516 37.1484L16.4766 35.9844C17.1693 35.651 17.7969 35.1641 18.3594 34.5234C18.9219 33.8776 19.362 33.1562 19.6797 32.3594C20.0026 31.5573 20.1641 30.7552 20.1641 29.9531V27.875H21.3828V29.9531ZM21.6641 29.9531C21.6641 30.724 21.8203 31.4896 22.1328 32.25C22.4505 33.0104 22.8906 33.6875 23.4531 34.2812C24.0208 34.875 24.6589 35.3255 25.3672 35.6328L24.5469 36.7969C23.7552 36.4427 23.0495 35.9167 22.4297 35.2188C21.8151 34.5208 21.3359 33.7161 20.9922 32.8047C20.6536 31.8932 20.4844 30.9427 20.4844 29.9531V27.875H21.6641V29.9531ZM24.8672 28.4609H16.9688V27.2422H24.8672V28.4609ZM28.1172 39.8203H26.625V25.8203H28.1172V39.8203ZM32.0688 32.7188H30.5844V26.8125H32.0688V32.7188ZM31.725 32.2266C32.8292 32.237 33.9047 32.1979 34.9516 32.1094C35.9984 32.0208 37.0583 31.8646 38.1313 31.6406L38.2953 32.8594C37.2016 33.0833 36.1208 33.2422 35.0531 33.3359C33.9906 33.4297 32.8813 33.4766 31.725 33.4766H30.5844V32.2266H31.725ZM40.9438 35.9297H39.4672V25.8359H40.9438V35.9297ZM42.9828 31.1875H40.4906V29.9219H42.9828V31.1875ZM41.4359 39.5469H32.1156V38.3203H41.4359V39.5469ZM33.5922 38.9297H32.1156V34.9531H33.5922V38.9297ZM45.0828 31.2031C46.5568 31.2083 47.7599 31.1771 48.6922 31.1094C49.6297 31.0417 50.5594 30.9167 51.4813 30.7344L51.6609 31.8984C51.0307 32.0339 50.4005 32.138 49.7703 32.2109C49.1401 32.2839 48.4656 32.3307 47.7469 32.3516C47.0333 32.3724 46.1453 32.3828 45.0828 32.3828H43.9656V31.2031H45.0828ZM50.2156 27.7969H45.4266V31.8984H43.9656V26.6094H50.2156V27.7969ZM54.3719 32.8594H52.8953V25.8203H54.3719V32.8594ZM56.4109 29.9062H53.9578V28.6875H56.4109V29.9062ZM54.3719 37.0938H46.8094V39.1094H45.3484V35.9531H52.8953V34.7031H45.325V33.5078H54.3719V37.0938ZM54.8563 39.6484H45.3484V38.4453H54.8563V39.6484ZM69.6125 38.0859H56.8V36.8672H69.6125V38.0859ZM63.9016 37.2109H62.4484V33.6016H63.9016V37.2109ZM59.7531 29.1953H66.6281V26.7812H68.0891V33.9922H58.2609V26.7812H59.7531V29.1953ZM66.6281 32.7891V30.3906H59.7531V32.7891H66.6281ZM81.1344 39.8594H79.6578V25.8203H81.1344V39.8594ZM83.3922 32.4766H80.7984V31.25H83.3922V32.4766ZM71.9547 35.1484C73.2776 35.1484 74.4339 35.1146 75.4234 35.0469C76.413 34.974 77.4104 34.8464 78.4156 34.6641L78.5953 35.9297C77.5745 36.112 76.5641 36.2344 75.5641 36.2969C74.5693 36.3542 73.3661 36.3828 71.9547 36.3828H70.8219V35.1484H71.9547ZM77.3688 28.3828H72.2984V35.7266H70.8219V27.1641H77.3688V28.3828ZM162.907 39.8594H161.414V25.8203H162.907V39.8594ZM155.407 26.875C156.105 26.875 156.727 27.0781 157.274 27.4844C157.821 27.8906 158.248 28.4635 158.555 29.2031C158.862 29.9427 159.016 30.8047 159.016 31.7891C159.016 32.7786 158.862 33.6432 158.555 34.3828C158.248 35.1224 157.821 35.6953 157.274 36.1016C156.727 36.5026 156.105 36.7031 155.407 36.7031C154.709 36.7031 154.084 36.5026 153.532 36.1016C152.985 35.6953 152.558 35.1224 152.25 34.3828C151.943 33.6432 151.789 32.7786 151.789 31.7891C151.789 30.8047 151.943 29.9427 152.25 29.2031C152.558 28.4635 152.985 27.8906 153.532 27.4844C154.084 27.0781 154.709 26.875 155.407 26.875ZM155.407 28.2031C154.98 28.2031 154.599 28.349 154.266 28.6406C153.933 28.9323 153.675 29.349 153.493 29.8906C153.316 30.4271 153.227 31.0599 153.227 31.7891C153.227 32.513 153.316 33.1458 153.493 33.6875C153.675 34.2292 153.933 34.6458 154.266 34.9375C154.599 35.224 154.98 35.3672 155.407 35.3672C155.834 35.3672 156.211 35.224 156.539 34.9375C156.873 34.6458 157.131 34.2292 157.313 33.6875C157.495 33.1458 157.586 32.513 157.586 31.7891C157.586 31.0599 157.495 30.4271 157.313 29.8906C157.131 29.349 156.875 28.9323 156.547 28.6406C156.219 28.349 155.839 28.2031 155.407 28.2031ZM173.021 38.5H171.286V28.9141H171.224L168.529 30.6797V29.0312L171.333 27.1875H173.021V38.5ZM180.933 28.7422V28.6641H175.097V27.1875H182.714V28.7188L177.675 38.5H175.886L180.933 28.7422ZM186.635 32.5703C186.13 32.5703 185.7 32.4557 185.346 32.2266C184.992 31.9922 184.721 31.6615 184.533 31.2344C184.351 30.8073 184.26 30.3151 184.26 29.7578C184.26 29.2005 184.354 28.7083 184.541 28.2812C184.734 27.8542 185.007 27.526 185.361 27.2969C185.721 27.0625 186.145 26.9453 186.635 26.9453C187.15 26.9453 187.585 27.0625 187.939 27.2969C188.294 27.526 188.562 27.8516 188.744 28.2734C188.926 28.6953 189.018 29.1901 189.018 29.7578C189.018 30.3151 188.924 30.8047 188.736 31.2266C188.554 31.6484 188.283 31.9792 187.924 32.2188C187.57 32.4531 187.14 32.5703 186.635 32.5703ZM186.635 31.4609C186.874 31.4609 187.075 31.3906 187.236 31.25C187.403 31.1042 187.525 30.9062 187.604 30.6562C187.682 30.401 187.721 30.1016 187.721 29.7578C187.721 29.3984 187.682 29.0911 187.604 28.8359C187.531 28.5807 187.413 28.3854 187.252 28.25C187.09 28.1094 186.885 28.0443 186.635 28.0547C186.406 28.0547 186.208 28.125 186.041 28.2656C185.88 28.401 185.757 28.5964 185.674 28.8516C185.59 29.1068 185.549 29.4089 185.549 29.7578C185.549 30.1016 185.59 30.401 185.674 30.6562C185.757 30.9062 185.88 31.1042 186.041 31.25C186.208 31.3906 186.406 31.4609 186.635 31.4609ZM193.783 38.7266C193.283 38.7266 192.854 38.612 192.494 38.3828C192.135 38.1484 191.864 37.8203 191.682 37.3984C191.499 36.9766 191.408 36.4844 191.408 35.9219C191.408 35.3594 191.502 34.8646 191.689 34.4375C191.877 34.0104 192.15 33.6823 192.51 33.4531C192.869 33.2188 193.294 33.1016 193.783 33.1016C194.288 33.1016 194.718 33.2188 195.072 33.4531C195.432 33.6823 195.702 34.0104 195.885 34.4375C196.067 34.8646 196.158 35.3594 196.158 35.9219C196.158 36.474 196.064 36.9635 195.877 37.3906C195.689 37.8177 195.419 38.1484 195.064 38.3828C194.71 38.612 194.283 38.7266 193.783 38.7266ZM193.783 37.6172C194.028 37.6172 194.231 37.5495 194.393 37.4141C194.554 37.2734 194.671 37.0781 194.744 36.8281C194.822 36.5729 194.861 36.2708 194.861 35.9219C194.861 35.5677 194.822 35.2604 194.744 35C194.671 34.7396 194.557 34.5417 194.4 34.4062C194.244 34.2656 194.038 34.2005 193.783 34.2109C193.554 34.2109 193.356 34.2839 193.189 34.4297C193.028 34.5703 192.903 34.7682 192.814 35.0234C192.731 35.2786 192.689 35.5781 192.689 35.9219C192.689 36.2656 192.731 36.5651 192.814 36.8203C192.903 37.0755 193.028 37.2734 193.189 37.4141C193.351 37.5495 193.549 37.6172 193.783 37.6172ZM193.314 27.1875H194.744L186.963 38.5H185.533L193.314 27.1875ZM212.288 30.2188H202.663V29.0156H212.288V30.2188ZM213.78 32.6406H200.968V31.4531H213.78V32.6406ZM204.132 29.6094H202.663V26.0391H204.132V29.6094ZM212.171 37.1875H204.046V38.8359H202.554V36.0859H210.71V34.9141H202.522V33.7656H212.171V37.1875ZM212.655 39.6484H202.554V38.4766H212.655V39.6484ZM219.099 35.0547C219.099 35.7057 218.976 36.3333 218.732 36.9375C218.487 37.5365 218.125 38.0729 217.646 38.5469C217.167 39.026 216.588 39.3932 215.911 39.6484L215.177 38.5391C215.76 38.3359 216.26 38.0495 216.677 37.6797C217.099 37.3047 217.417 36.8906 217.63 36.4375C217.849 35.9792 217.958 35.5182 217.958 35.0547V34.3047H219.099V35.0547ZM219.38 35.0547C219.38 35.5391 219.474 36.013 219.661 36.4766C219.849 36.9401 220.133 37.362 220.513 37.7422C220.898 38.1224 221.367 38.4297 221.919 38.6641L221.263 39.7578C220.601 39.5026 220.047 39.1328 219.599 38.6484C219.156 38.1641 218.825 37.612 218.607 36.9922C218.393 36.3672 218.286 35.7214 218.286 35.0547V34.3047H219.38V35.0547ZM224.247 35.0547C224.247 35.6641 224.138 36.276 223.919 36.8906C223.7 37.5 223.367 38.0599 222.919 38.5703C222.476 39.0859 221.924 39.4818 221.263 39.7578L220.638 38.6641C221.18 38.4141 221.64 38.0859 222.021 37.6797C222.401 37.2734 222.682 36.8438 222.864 36.3906C223.052 35.9323 223.146 35.487 223.146 35.0547V34.3047H224.247V35.0547ZM224.607 35.0547C224.607 35.5495 224.713 36.026 224.927 36.4844C225.14 36.9375 225.458 37.3464 225.88 37.7109C226.302 38.0703 226.81 38.3464 227.404 38.5391L226.646 39.6484C225.963 39.4036 225.383 39.0495 224.904 38.5859C224.424 38.1276 224.065 37.5964 223.825 36.9922C223.591 36.3828 223.474 35.737 223.474 35.0547V34.3047H224.607V35.0547ZM224.982 30.4766H221.333V29.2578H224.982V30.4766ZM218.286 26.5938C218.974 26.5938 219.591 26.7344 220.138 27.0156C220.69 27.2969 221.125 27.6901 221.443 28.1953C221.765 28.6953 221.927 29.263 221.927 29.8984C221.927 30.5286 221.765 31.0964 221.443 31.6016C221.125 32.1068 220.69 32.5 220.138 32.7812C219.591 33.0625 218.974 33.2031 218.286 33.2031C217.588 33.2031 216.963 33.0625 216.411 32.7812C215.859 32.5 215.422 32.1068 215.099 31.6016C214.781 31.0964 214.622 30.5286 214.622 29.8984C214.622 29.263 214.781 28.6953 215.099 28.1953C215.422 27.6901 215.859 27.2969 216.411 27.0156C216.963 26.7344 217.588 26.5938 218.286 26.5938ZM218.286 27.8516C217.859 27.8411 217.476 27.9219 217.138 28.0938C216.799 28.2656 216.534 28.5078 216.341 28.8203C216.154 29.1328 216.06 29.4922 216.06 29.8984C216.06 30.2943 216.156 30.6484 216.349 30.9609C216.542 31.2734 216.805 31.5182 217.138 31.6953C217.476 31.8724 217.859 31.9661 218.286 31.9766C218.703 31.9661 219.078 31.8724 219.411 31.6953C219.75 31.5182 220.015 31.2734 220.208 30.9609C220.401 30.6484 220.497 30.2943 220.497 29.8984C220.497 29.4922 220.401 29.1328 220.208 28.8203C220.015 28.5078 219.75 28.2656 219.411 28.0938C219.078 27.9219 218.703 27.8411 218.286 27.8516ZM226.083 33.7734H224.599V25.8203H226.083V33.7734ZM231.636 26.875C232.324 26.875 232.933 27.0781 233.464 27.4844C234.001 27.8906 234.42 28.4635 234.722 29.2031C235.024 29.9427 235.175 30.8047 235.175 31.7891C235.175 32.7786 235.024 33.6432 234.722 34.3828C234.42 35.1224 234.001 35.6953 233.464 36.1016C232.933 36.5026 232.324 36.7031 231.636 36.7031C230.949 36.7031 230.334 36.5026 229.793 36.1016C229.256 35.7005 228.837 35.1302 228.535 34.3906C228.233 33.6458 228.082 32.7786 228.082 31.7891C228.082 30.8047 228.233 29.9427 228.535 29.2031C228.837 28.4635 229.256 27.8906 229.793 27.4844C230.334 27.0781 230.949 26.875 231.636 26.875ZM231.636 28.2031C231.22 28.2031 230.847 28.349 230.519 28.6406C230.191 28.9323 229.938 29.349 229.761 29.8906C229.589 30.4271 229.504 31.0599 229.504 31.7891C229.504 32.513 229.589 33.1458 229.761 33.6875C229.938 34.2292 230.191 34.6458 230.519 34.9375C230.847 35.224 231.22 35.3672 231.636 35.3672C232.053 35.3672 232.425 35.224 232.754 34.9375C233.082 34.6458 233.334 34.2292 233.511 33.6875C233.688 33.1458 233.777 32.513 233.777 31.7891C233.777 31.0599 233.686 30.4271 233.504 29.8906C233.326 29.349 233.076 28.9323 232.754 28.6406C232.436 28.349 232.063 28.2031 231.636 28.2031ZM239.519 39.8594H238.043V25.8203H239.519V39.8594ZM238.691 32.2891H234.707V31.0781H238.691V32.2891ZM245.799 37.1172H244.338V33.0156H245.799V37.1172ZM251.018 37.1172H249.525V33.0156H251.018V37.1172ZM254.08 38.0781H241.268V36.8516H254.08V38.0781ZM247.65 26.6328C248.65 26.6328 249.541 26.7865 250.322 27.0938C251.104 27.3958 251.713 27.8255 252.15 28.3828C252.593 28.9349 252.814 29.5703 252.814 30.2891C252.814 31.013 252.593 31.651 252.15 32.2031C251.713 32.75 251.104 33.1771 250.322 33.4844C249.541 33.7865 248.65 33.9375 247.65 33.9375C246.656 33.9375 245.765 33.7865 244.979 33.4844C244.197 33.1771 243.585 32.75 243.143 32.2031C242.7 31.651 242.479 31.013 242.479 30.2891C242.479 29.5703 242.7 28.9349 243.143 28.3828C243.585 27.8255 244.197 27.3958 244.979 27.0938C245.765 26.7865 246.656 26.6328 247.65 26.6328ZM247.65 27.8359C246.921 27.8307 246.275 27.9297 245.713 28.1328C245.156 28.3307 244.718 28.6172 244.4 28.9922C244.088 29.362 243.932 29.7943 243.932 30.2891C243.932 30.7839 244.088 31.2188 244.4 31.5938C244.718 31.9688 245.158 32.2604 245.721 32.4688C246.283 32.6771 246.926 32.7812 247.65 32.7812C248.369 32.7812 249.01 32.6771 249.572 32.4688C250.135 32.2604 250.575 31.9688 250.893 31.5938C251.21 31.2188 251.369 30.7839 251.369 30.2891C251.369 29.7943 251.21 29.362 250.893 28.9922C250.58 28.6172 250.143 28.3307 249.58 28.1328C249.018 27.9297 248.374 27.8307 247.65 27.8359Z" fill="#474C52"/>
<path d="M92.7904 26.3887C92.7904 27.4199 92.6176 28.3867 92.2719 29.2891C91.9262 30.1855 91.4076 30.9678 90.7162 31.6357C90.0307 32.3037 89.1869 32.8018 88.185 33.1299L87.0687 31.3721C87.9301 31.0908 88.6508 30.6924 89.2309 30.1768C89.8109 29.6611 90.2387 29.0781 90.5141 28.4277C90.7895 27.7715 90.9271 27.0918 90.9271 26.3887V24.8506H92.7904V26.3887ZM93.2562 26.3887C93.2562 27.0859 93.3881 27.7422 93.6518 28.3574C93.9154 28.9727 94.3285 29.5234 94.891 30.0098C95.4594 30.4902 96.1654 30.8564 97.0092 31.1084L95.9018 32.875C94.9057 32.5586 94.0707 32.084 93.3969 31.4512C92.723 30.8125 92.2162 30.0625 91.8764 29.2012C91.5424 28.3398 91.3754 27.4023 91.3754 26.3887V24.8506H93.2562V26.3887ZM100.507 40.1172H98.266V36.1533H89.5209V34.3516H100.507V40.1172ZM100.507 33.666H98.266V24.1035H100.507V33.666ZM115.623 40.1611H113.346V24.1035H115.623V40.1611ZM105.269 29.2891H108.723V25.3955H110.929V36.417H103.028V25.3955H105.269V29.2891ZM108.723 34.5889V31.0293H105.269V34.5889H108.723ZM126.781 28.4717C126.781 29.7314 126.603 30.9326 126.245 32.0752C125.894 33.2119 125.375 34.2227 124.689 35.1074C124.004 35.9922 123.178 36.6602 122.211 37.1113L120.928 35.3447C121.789 34.9521 122.521 34.3926 123.125 33.666C123.734 32.9395 124.191 32.1279 124.496 31.2314C124.807 30.3291 124.962 29.4092 124.962 28.4717V26.6084H126.781V28.4717ZM127.247 28.4717C127.247 29.3623 127.399 30.2324 127.704 31.082C128.009 31.9316 128.463 32.6992 129.066 33.3848C129.67 34.0645 130.402 34.583 131.264 34.9404L130.051 36.6982C129.061 36.2705 128.223 35.6406 127.537 34.8086C126.852 33.9766 126.336 33.0186 125.99 31.9346C125.65 30.8447 125.48 29.6904 125.48 28.4717V26.6084H127.247V28.4717ZM130.604 27.4961H121.569V25.668H130.604V27.4961ZM134.445 40.1172H132.169V24.1035H134.445V40.1172ZM144.551 34.5625H142.345V32.2334H144.551V34.5625ZM150.721 32.5674H136.193V30.9326H150.721V32.5674ZM144.542 26.0371H142.319V24.1035H144.542V26.0371ZM144.147 26.4502C144.147 27.2178 143.889 27.8945 143.373 28.4805C142.858 29.0605 142.093 29.5234 141.079 29.8691C140.066 30.2148 138.829 30.4287 137.37 30.5107L136.764 28.8584C137.994 28.7998 139.014 28.6562 139.822 28.4277C140.637 28.1934 141.232 27.9062 141.607 27.5664C141.988 27.2266 142.178 26.8545 142.178 26.4502V26.125H144.147V26.4502ZM144.692 26.4502C144.692 26.8545 144.879 27.2266 145.254 27.5664C145.635 27.9062 146.233 28.1934 147.047 28.4277C147.867 28.6562 148.896 28.7998 150.132 28.8584L149.482 30.5107C148.046 30.4287 146.821 30.2148 145.808 29.8691C144.8 29.5234 144.032 29.0605 143.505 28.4805C142.984 27.8945 142.723 27.2178 142.723 26.4502V26.125H144.692V26.4502ZM149.341 27.0303H137.564V25.3691H149.341V27.0303ZM148.972 37.4717H140.06V39.0273H137.854V35.9688H146.757V35.1865H137.845V33.5781H148.972V37.4717ZM149.394 40.0029H137.854V38.3594H149.394V40.0029Z" fill="#13278A"/>
<path d="M295.708 18.2096C295.317 17.8179 294.683 17.8179 294.292 18.2096L282.702 29.826C282.074 30.4563 282.52 31.5323 283.41 31.5323H288.4C288.952 31.5323 289.4 31.98 289.4 32.5323V45.5C289.4 46.0523 289.848 46.5 290.4 46.5H299.6C300.152 46.5 300.6 46.0523 300.6 45.5V32.5323C300.6 31.98 301.048 31.5323 301.6 31.5323H306.59C307.48 31.5323 307.926 30.4563 307.298 29.826L295.708 18.2096Z" fill="url(#paint0_linear_1535_18187)"/>
<defs>
<linearGradient id="paint0_linear_1535_18187" x1="295" y1="20.3066" x2="295" y2="46.5" gradientUnits="userSpaceOnUse">
<stop stop-color="#EB1C1C"/>
<stop offset="1" stop-color="#EB1C1C" stop-opacity="0"/>
</linearGradient>
</defs>
</svg>
