<svg width="327" height="64" viewBox="0 0 327 64" fill="none" xmlns="http://www.w3.org/2000/svg">
<rect width="327" height="64" rx="8" fill="white"/>
<path d="M29.8604 33.165H27.6191V24.1387H29.8604V33.165ZM29.8604 39.9414H19.1465V33.8945H29.8604V39.9414ZM21.3525 38.1396H27.6631V35.6699H21.3525V38.1396ZM22.1436 26.2656C22.1436 27.2793 21.9707 28.2285 21.625 29.1133C21.2793 29.9922 20.7578 30.7598 20.0605 31.416C19.3691 32.0664 18.5195 32.5527 17.5117 32.875L16.4043 31.1084C17.2715 30.8389 17.9951 30.458 18.5752 29.9658C19.1611 29.4678 19.5918 28.8994 19.8672 28.2607C20.1426 27.6221 20.2803 26.957 20.2803 26.2656V24.7188H22.1436V26.2656ZM22.6094 26.2656C22.6094 26.9277 22.7441 27.5605 23.0137 28.1641C23.2832 28.7617 23.6992 29.2979 24.2617 29.7725C24.8242 30.2412 25.5215 30.6045 26.3535 30.8623L25.2637 32.585C24.2734 32.2803 23.4385 31.8203 22.7588 31.2051C22.085 30.5898 21.5781 29.8633 21.2383 29.0254C20.8984 28.1816 20.7285 27.2617 20.7285 26.2656V24.7188H22.6094V26.2656ZM44.967 33.165H42.7258V24.1387H44.967V33.165ZM44.967 39.9414H34.2531V33.8945H44.967V39.9414ZM36.4592 38.1396H42.7697V35.6699H36.4592V38.1396ZM37.2502 26.2656C37.2502 27.2793 37.0773 28.2285 36.7316 29.1133C36.3859 29.9922 35.8645 30.7598 35.1672 31.416C34.4758 32.0664 33.6262 32.5527 32.6184 32.875L31.5109 31.1084C32.3781 30.8389 33.1018 30.458 33.6818 29.9658C34.2678 29.4678 34.6984 28.8994 34.9738 28.2607C35.2492 27.6221 35.3869 26.957 35.3869 26.2656V24.7188H37.2502V26.2656ZM37.716 26.2656C37.716 26.9277 37.8508 27.5605 38.1203 28.1641C38.3898 28.7617 38.8059 29.2979 39.3684 29.7725C39.9309 30.2412 40.6281 30.6045 41.4602 30.8623L40.3703 32.585C39.3801 32.2803 38.5451 31.8203 37.8654 31.2051C37.1916 30.5898 36.6848 29.8633 36.3449 29.0254C36.0051 28.1816 35.8352 27.2617 35.8352 26.2656V24.7188H37.716V26.2656ZM59.3793 32.7607H57.1381V24.0947H59.3793V32.7607ZM61.559 29.3506H58.4652V27.5576H61.559V29.3506ZM59.3793 37.4365H51.0033V38.9131H48.7973V35.9072H57.1469V35.0107H48.7709V33.4023H59.3793V37.4365ZM59.8451 40.0029H48.7973V38.3594H59.8451V40.0029ZM56.1801 27.0215H46.6791V25.3164H56.1801V27.0215ZM51.4428 27.4082C52.2279 27.4082 52.9193 27.5166 53.517 27.7334C54.1146 27.9443 54.5746 28.2461 54.8969 28.6387C55.2191 29.0312 55.3803 29.4941 55.3803 30.0273C55.3803 30.5605 55.2191 31.0264 54.8969 31.4248C54.5746 31.8174 54.1176 32.1191 53.5258 32.3301C52.934 32.541 52.2396 32.6465 51.4428 32.6465C50.6518 32.6465 49.9545 32.541 49.351 32.3301C48.7533 32.1191 48.2904 31.8174 47.9623 31.4248C47.6342 31.0264 47.4701 30.5605 47.4701 30.0273C47.4701 29.4941 47.6342 29.0312 47.9623 28.6387C48.2904 28.2461 48.7533 27.9443 49.351 27.7334C49.9545 27.5166 50.6518 27.4082 51.4428 27.4082ZM51.4428 28.9814C51.0736 28.9814 50.7543 29.0225 50.4848 29.1045C50.2152 29.1865 50.0072 29.3066 49.8607 29.4648C49.7201 29.6172 49.6498 29.8047 49.6498 30.0273C49.6498 30.2441 49.7201 30.4316 49.8607 30.5898C50.0072 30.7422 50.2123 30.8564 50.476 30.9326C50.7396 31.0029 51.0619 31.0381 51.4428 31.0381C51.8178 31.0381 52.1371 31.0029 52.4008 30.9326C52.6703 30.8564 52.8783 30.7422 53.0248 30.5898C53.1771 30.4316 53.2533 30.2441 53.2533 30.0273C53.2533 29.7988 53.1771 29.6084 53.0248 29.4561C52.8783 29.3037 52.6703 29.1865 52.4008 29.1045C52.1313 29.0225 51.8119 28.9814 51.4428 28.9814ZM52.559 26.5205H50.3178V24.0068H52.559V26.5205ZM76.2332 39.3965H74.1854V24.376H76.2332V39.3965ZM78.2459 32.1543H75.3895V30.335H78.2459V32.1543ZM66.5037 34.3867C66.9666 34.3926 67.409 34.3779 67.8309 34.3428C68.2527 34.3018 68.7098 34.2285 69.202 34.123L69.3689 35.9775C68.824 36.083 68.3318 36.1533 67.8924 36.1885C67.4588 36.2236 66.9959 36.2383 66.5037 36.2324H65.7742V34.3867H66.5037ZM69.2107 27.8301H67.8221V35.3975H65.7742V26.0371H69.2107V27.8301ZM70.5467 34.3867C71.1268 34.3926 71.6365 34.3779 72.076 34.3428C72.5213 34.3076 73.0076 34.2256 73.535 34.0967L73.6668 35.96C73.1219 36.083 72.618 36.1621 72.1551 36.1973C71.6922 36.2266 71.1561 36.2383 70.5467 36.2324H69.826V34.3867H70.5467ZM73.3328 27.8301H71.8299V35.3887H69.826V26.0371H73.3328V27.8301ZM79.5643 40.1172H77.4549V24.1035H79.5643V40.1172Z" fill="#13278A"/>
<path d="M87.7441 36.3125H81.1973V27.2109H87.7441V36.3125ZM82.6426 35.1172H86.2676V28.3828H82.6426V35.1172ZM91.5645 39.8203H90.0879V25.8203H91.5645V39.8203ZM93.8223 32.5703H91.2285V31.3047H93.8223V32.5703ZM104.993 39.8594H103.516V25.8203H104.993V39.8594ZM107.25 32.4766H104.657V31.25H107.25V32.4766ZM95.8129 35.1484C97.1358 35.1484 98.2921 35.1146 99.2816 35.0469C100.271 34.974 101.269 34.8464 102.274 34.6641L102.454 35.9297C101.433 36.112 100.422 36.2344 99.4223 36.2969C98.4275 36.3542 97.2243 36.3828 95.8129 36.3828H94.6801V35.1484H95.8129ZM101.227 28.3828H96.1566V35.7266H94.6801V27.1641H101.227V28.3828ZM115.888 29.9531C115.888 30.9583 115.713 31.9427 115.364 32.9062C115.015 33.8646 114.536 34.7188 113.927 35.4688C113.318 36.2135 112.627 36.7734 111.857 37.1484L110.982 35.9844C111.674 35.651 112.302 35.1641 112.864 34.5234C113.427 33.8776 113.867 33.1562 114.185 32.3594C114.508 31.5573 114.669 30.7552 114.669 29.9531V27.875H115.888V29.9531ZM116.169 29.9531C116.169 30.724 116.325 31.4896 116.638 32.25C116.956 33.0104 117.396 33.6875 117.958 34.2812C118.526 34.875 119.164 35.3255 119.872 35.6328L119.052 36.7969C118.26 36.4427 117.555 35.9167 116.935 35.2188C116.32 34.5208 115.841 33.7161 115.497 32.8047C115.159 31.8932 114.989 30.9427 114.989 29.9531V27.875H116.169V29.9531ZM119.372 28.4609H111.474V27.2422H119.372V28.4609ZM122.622 39.8203H121.13V25.8203H122.622V39.8203ZM135.449 33.4062H133.949V25.8203H135.449V33.4062ZM137.488 30.2891H135.035V29.0625H137.488V30.2891ZM131.613 26.6484C131.613 27.8255 131.355 28.875 130.839 29.7969C130.324 30.7135 129.571 31.4896 128.582 32.125C127.597 32.7604 126.405 33.25 125.004 33.5938L124.449 32.375C125.647 32.0938 126.66 31.7109 127.488 31.2266C128.316 30.737 128.941 30.1693 129.363 29.5234C129.785 28.8724 129.996 28.1693 129.996 27.4141V26.6484H131.613ZM130.918 27.8438H125.097V26.6484H130.918V27.8438ZM127.941 35.6562H133.972V34.0156H135.449V39.6484H126.449V34.0156H127.941V35.6562ZM133.972 38.4453V36.8281H127.941V38.4453H133.972ZM149.479 39.8594H147.986V25.8203H149.479V39.8594ZM141.979 26.875C142.676 26.875 143.299 27.0781 143.846 27.4844C144.393 27.8906 144.82 28.4635 145.127 29.2031C145.434 29.9427 145.588 30.8047 145.588 31.7891C145.588 32.7786 145.434 33.6432 145.127 34.3828C144.82 35.1224 144.393 35.6953 143.846 36.1016C143.299 36.5026 142.676 36.7031 141.979 36.7031C141.281 36.7031 140.656 36.5026 140.104 36.1016C139.557 35.6953 139.13 35.1224 138.822 34.3828C138.515 33.6432 138.361 32.7786 138.361 31.7891C138.361 30.8047 138.515 29.9427 138.822 29.2031C139.13 28.4635 139.557 27.8906 140.104 27.4844C140.656 27.0781 141.281 26.875 141.979 26.875ZM141.979 28.2031C141.551 28.2031 141.171 28.349 140.838 28.6406C140.505 28.9323 140.247 29.349 140.064 29.8906C139.887 30.4271 139.799 31.0599 139.799 31.7891C139.799 32.513 139.887 33.1458 140.064 33.6875C140.247 34.2292 140.505 34.6458 140.838 34.9375C141.171 35.224 141.551 35.3672 141.979 35.3672C142.406 35.3672 142.783 35.224 143.111 34.9375C143.445 34.6458 143.702 34.2292 143.885 33.6875C144.067 33.1458 144.158 32.513 144.158 31.7891C144.158 31.0599 144.067 30.4271 143.885 29.8906C143.702 29.349 143.447 28.9323 143.119 28.6406C142.791 28.349 142.411 28.2031 141.979 28.2031ZM165.718 39.8125H164.241V25.8203H165.718V39.8125ZM167.889 32.6484H165.335V31.4141H167.889V32.6484ZM162.054 27.3047C162.054 28.7057 161.835 30.0156 161.397 31.2344C160.965 32.4479 160.272 33.5677 159.319 34.5938C158.371 35.6146 157.15 36.4948 155.655 37.2344L154.827 36.0781C156.113 35.4323 157.184 34.6875 158.038 33.8438C158.892 32.9948 159.533 32.0495 159.96 31.0078C160.387 29.9609 160.6 28.8125 160.6 27.5625V27.3047H162.054ZM161.35 28.5391H155.514V27.3047H161.35V28.5391ZM179.036 30.4688H175.029V29.2656H179.036V30.4688ZM179.036 34.2656H175.029V33.0391H179.036V34.2656ZM179.919 39.8594H178.443V25.8203H179.919V39.8594ZM170.279 30.4844H173.896V26.9219H175.349V36.3828H168.786V26.9219H170.279V30.4844ZM173.896 35.1797V31.6641H170.279V35.1797H173.896ZM186.879 39.4062H185.386V33.6406H186.879V39.4062ZM193.386 39.8281H191.871V25.8359H193.386V39.8281ZM181.605 33.1172C183.438 33.1172 185.097 33.0885 186.582 33.0312C188.071 32.974 189.493 32.8542 190.847 32.6719L190.941 33.7656C189.545 34 188.1 34.1589 186.605 34.2422C185.115 34.3203 183.514 34.3594 181.8 34.3594L181.605 33.1172ZM192.23 36.4844H188.769V35.3594H192.23V36.4844ZM186.207 26.4844C186.899 26.4844 187.511 26.6042 188.043 26.8438C188.579 27.0781 188.998 27.4062 189.3 27.8281C189.608 28.2448 189.761 28.7292 189.761 29.2812C189.761 29.8333 189.61 30.3203 189.308 30.7422C189.011 31.1641 188.592 31.4896 188.05 31.7188C187.514 31.9479 186.899 32.0625 186.207 32.0625C185.514 32.0625 184.897 31.9479 184.355 31.7188C183.819 31.4896 183.399 31.1641 183.097 30.7422C182.795 30.3203 182.644 29.8333 182.644 29.2812C182.644 28.7292 182.795 28.2448 183.097 27.8281C183.405 27.4062 183.826 27.0781 184.363 26.8438C184.905 26.6042 185.519 26.4844 186.207 26.4844ZM186.207 27.625C185.785 27.625 185.407 27.6953 185.074 27.8359C184.746 27.9714 184.49 28.1667 184.308 28.4219C184.131 28.6719 184.043 28.9583 184.043 29.2812C184.043 29.6042 184.134 29.8932 184.316 30.1484C184.498 30.3984 184.754 30.5911 185.082 30.7266C185.41 30.8568 185.785 30.9219 186.207 30.9219C186.623 30.9219 186.996 30.8568 187.324 30.7266C187.652 30.5911 187.905 30.3984 188.082 30.1484C188.264 29.8932 188.355 29.6042 188.355 29.2812C188.355 28.9583 188.264 28.6719 188.082 28.4219C187.905 28.1667 187.652 27.9714 187.324 27.8359C186.996 27.6953 186.623 27.625 186.207 27.625ZM206.768 33.9922H205.283V25.8203H206.768V33.9922ZM199.83 28.4766C199.83 29.3359 199.671 30.1406 199.354 30.8906C199.041 31.6406 198.59 32.2891 198.002 32.8359C197.413 33.3828 196.713 33.7995 195.9 34.0859L195.119 32.9219C195.838 32.6719 196.46 32.3229 196.986 31.875C197.518 31.4271 197.921 30.9115 198.197 30.3281C198.479 29.7396 198.619 29.1224 198.619 28.4766V27.3984H199.83V28.4766ZM200.135 28.4609C200.135 29.0599 200.268 29.6328 200.533 30.1797C200.799 30.7266 201.184 31.2135 201.689 31.6406C202.2 32.0677 202.796 32.401 203.479 32.6406L202.721 33.7891C201.934 33.513 201.255 33.112 200.682 32.5859C200.114 32.0599 199.676 31.4427 199.369 30.7344C199.062 30.0208 198.908 29.263 198.908 28.4609V27.3984H200.135V28.4609ZM205.752 29.6172H202.854V28.4062H205.752V29.6172ZM203.104 27.9531H195.588V26.7344H203.104V27.9531ZM205.752 31.9609H202.854V30.7656H205.752V31.9609ZM199.783 35.0547C199.783 35.7057 199.661 36.3333 199.416 36.9375C199.171 37.5365 198.809 38.0729 198.33 38.5469C197.851 39.026 197.273 39.3932 196.596 39.6484L195.861 38.5391C196.445 38.3359 196.945 38.0495 197.361 37.6797C197.783 37.3047 198.101 36.8906 198.314 36.4375C198.533 35.9792 198.643 35.5182 198.643 35.0547V34.4219H199.783V35.0547ZM200.064 35.0547C200.064 35.5391 200.158 36.013 200.346 36.4766C200.533 36.9401 200.817 37.362 201.197 37.7422C201.583 38.1224 202.051 38.4297 202.604 38.6641L201.947 39.7578C201.286 39.5026 200.731 39.1328 200.283 38.6484C199.84 38.1641 199.51 37.612 199.291 36.9922C199.077 36.3672 198.971 35.7214 198.971 35.0547V34.4219H200.064V35.0547ZM204.932 35.0547C204.932 35.6641 204.822 36.276 204.604 36.8906C204.385 37.5 204.051 38.0599 203.604 38.5703C203.161 39.0859 202.609 39.4818 201.947 39.7578L201.322 38.6641C201.864 38.4141 202.325 38.0859 202.705 37.6797C203.085 37.2734 203.367 36.8438 203.549 36.3906C203.736 35.9323 203.83 35.487 203.83 35.0547V34.4219H204.932V35.0547ZM205.291 35.0547C205.291 35.5495 205.398 36.026 205.611 36.4844C205.825 36.9375 206.143 37.3464 206.564 37.7109C206.986 38.0703 207.494 38.3464 208.088 38.5391L207.33 39.6484C206.648 39.4036 206.067 39.0495 205.588 38.5859C205.109 38.1276 204.749 37.5964 204.51 36.9922C204.275 36.3828 204.158 35.737 204.158 35.0547V34.4219H205.291V35.0547ZM212.321 26.875C213.008 26.875 213.618 27.0781 214.149 27.4844C214.685 27.8906 215.105 28.4635 215.407 29.2031C215.709 29.9427 215.86 30.8047 215.86 31.7891C215.86 32.7786 215.709 33.6432 215.407 34.3828C215.105 35.1224 214.685 35.6953 214.149 36.1016C213.618 36.5026 213.008 36.7031 212.321 36.7031C211.633 36.7031 211.019 36.5026 210.477 36.1016C209.941 35.7005 209.521 35.1302 209.219 34.3906C208.917 33.6458 208.766 32.7786 208.766 31.7891C208.766 30.8047 208.917 29.9427 209.219 29.2031C209.521 28.4635 209.941 27.8906 210.477 27.4844C211.019 27.0781 211.633 26.875 212.321 26.875ZM212.321 28.2031C211.904 28.2031 211.532 28.349 211.204 28.6406C210.875 28.9323 210.623 29.349 210.446 29.8906C210.274 30.4271 210.188 31.0599 210.188 31.7891C210.188 32.513 210.274 33.1458 210.446 33.6875C210.623 34.2292 210.875 34.6458 211.204 34.9375C211.532 35.224 211.904 35.3672 212.321 35.3672C212.737 35.3672 213.11 35.224 213.438 34.9375C213.766 34.6458 214.019 34.2292 214.196 33.6875C214.373 33.1458 214.461 32.513 214.461 31.7891C214.461 31.0599 214.37 30.4271 214.188 29.8906C214.011 29.349 213.761 28.9323 213.438 28.6406C213.12 28.349 212.748 28.2031 212.321 28.2031ZM220.204 39.8594H218.727V25.8203H220.204V39.8594ZM219.375 32.2891H215.391V31.0781H219.375V32.2891ZM226.483 37.1172H225.022V33.0156H226.483V37.1172ZM231.702 37.1172H230.21V33.0156H231.702V37.1172ZM234.764 38.0781H221.952V36.8516H234.764V38.0781ZM228.335 26.6328C229.335 26.6328 230.225 26.7865 231.007 27.0938C231.788 27.3958 232.397 27.8255 232.835 28.3828C233.277 28.9349 233.499 29.5703 233.499 30.2891C233.499 31.013 233.277 31.651 232.835 32.2031C232.397 32.75 231.788 33.1771 231.007 33.4844C230.225 33.7865 229.335 33.9375 228.335 33.9375C227.34 33.9375 226.449 33.7865 225.663 33.4844C224.882 33.1771 224.27 32.75 223.827 32.2031C223.384 31.651 223.163 31.013 223.163 30.2891C223.163 29.5703 223.384 28.9349 223.827 28.3828C224.27 27.8255 224.882 27.3958 225.663 27.0938C226.449 26.7865 227.34 26.6328 228.335 26.6328ZM228.335 27.8359C227.606 27.8307 226.96 27.9297 226.397 28.1328C225.84 28.3307 225.402 28.6172 225.085 28.9922C224.772 29.362 224.616 29.7943 224.616 30.2891C224.616 30.7839 224.772 31.2188 225.085 31.5938C225.402 31.9688 225.843 32.2604 226.405 32.4688C226.968 32.6771 227.611 32.7812 228.335 32.7812C229.054 32.7812 229.694 32.6771 230.257 32.4688C230.819 32.2604 231.259 31.9688 231.577 31.5938C231.895 31.2188 232.054 30.7839 232.054 30.2891C232.054 29.7943 231.895 29.362 231.577 28.9922C231.264 28.6172 230.827 28.3307 230.264 28.1328C229.702 27.9297 229.059 27.8307 228.335 27.8359Z" fill="#27282C"/>
<g filter="url(#filter0_i_1535_18190)">
<circle cx="295" cy="32" r="14" fill="url(#paint0_linear_1535_18190)"/>
</g>
<path d="M297.8 30.4321H302" stroke="#3B381D" stroke-width="0.940298" stroke-linecap="round"/>
<path d="M288 30.4321H292.2" stroke="#3B381D" stroke-width="0.940298" stroke-linecap="round"/>
<circle cx="295" cy="34.6122" r="1.04478" fill="#3B381D"/>
<defs>
<filter id="filter0_i_1535_18190" x="280.582" y="17.5821" width="28.4179" height="28.4179" filterUnits="userSpaceOnUse" color-interpolation-filters="sRGB">
<feFlood flood-opacity="0" result="BackgroundImageFix"/>
<feBlend mode="normal" in="SourceGraphic" in2="BackgroundImageFix" result="shape"/>
<feColorMatrix in="SourceAlpha" type="matrix" values="0 0 0 0 0 0 0 0 0 0 0 0 0 0 0 0 0 0 127 0" result="hardAlpha"/>
<feMorphology radius="0.41791" operator="erode" in="SourceAlpha" result="effect1_innerShadow_1535_18190"/>
<feOffset dx="-0.41791" dy="-0.41791"/>
<feGaussianBlur stdDeviation="0.835821"/>
<feComposite in2="hardAlpha" operator="arithmetic" k2="-1" k3="1"/>
<feColorMatrix type="matrix" values="0 0 0 0 1 0 0 0 0 1 0 0 0 0 1 0 0 0 0.32 0"/>
<feBlend mode="normal" in2="shape" result="effect1_innerShadow_1535_18190"/>
</filter>
<linearGradient id="paint0_linear_1535_18190" x1="295" y1="18" x2="295" y2="46" gradientUnits="userSpaceOnUse">
<stop offset="0.146388" stop-color="#EFE79C"/>
<stop offset="1" stop-color="#CABE48"/>
</linearGradient>
</defs>
</svg>
