<svg width="76" height="79" viewBox="0 0 76 79" fill="none" xmlns="http://www.w3.org/2000/svg">
<g filter="url(#filter0_i_1776_31957)">
<path d="M41.6637 36.3041C47.8131 38.736 57.6506 52.6517 50.4641 65.0261" stroke="url(#paint0_linear_1776_31957)" stroke-width="3.96212" stroke-linecap="round"/>
</g>
<g filter="url(#filter1_i_1776_31957)">
<path d="M38.0028 13.3361C40.7188 10.247 45.452 9.93514 48.5667 12.6465C51.6853 15.3614 52.0131 20.0756 49.2988 23.1758L39.9904 33.8075C38.9381 35.0094 37.0681 35.0094 36.0157 33.8075L26.7072 23.1758C23.9928 20.0756 24.3206 15.3614 27.4392 12.6465C30.5538 9.93513 35.2868 10.2471 38.0028 13.3361Z" fill="url(#paint1_linear_1776_31957)"/>
</g>
<g filter="url(#filter2_i_1776_31957)">
<path d="M38.0015 56.1269C35.2855 59.216 30.5524 59.5278 27.4377 56.8165C24.319 54.1015 23.9913 49.3873 26.7056 46.2872L36.014 35.6554C37.0663 34.4535 38.9363 34.4535 39.9886 35.6554L49.2972 46.2872C52.0115 49.3873 51.6838 54.1015 48.5651 56.8165C45.4505 59.5278 40.7176 59.2158 38.0015 56.1269Z" fill="url(#paint2_linear_1776_31957)"/>
</g>
<g filter="url(#filter3_i_1776_31957)">
<path d="M59.4566 34.7313C62.5545 37.4396 62.8673 42.1592 60.1481 45.265C57.4254 48.3747 52.6977 48.7016 49.5887 45.995L38.9387 36.7239C37.7292 35.671 37.7292 33.7922 38.9386 32.7393L49.5887 23.468C52.6977 20.7614 57.4254 21.0882 60.1481 24.1979C62.8673 27.3036 62.5544 32.0231 59.4566 34.7313Z" fill="url(#paint3_linear_1776_31957)"/>
</g>
<g filter="url(#filter4_i_1776_31957)">
<path d="M16.5434 34.7316C13.4455 32.0233 13.1327 27.3037 15.8519 24.1979C18.5746 21.0881 23.3023 20.7613 26.4113 23.4679L37.0613 32.739C38.2708 33.7919 38.2708 35.6707 37.0614 36.7236L26.4113 45.9949C23.3023 48.7015 18.5746 48.3747 15.8519 45.265C13.1327 42.1593 13.4456 37.4398 16.5434 34.7316Z" fill="url(#paint4_linear_1776_31957)"/>
</g>
<g filter="url(#filter5_f_1776_31957)">
<path d="M53 24.2998C56.3333 24.6331 61.6 26.9998 56 33.7998C58.5 36.6331 61.4 42.6998 53 44.2998" stroke="white" stroke-linecap="round"/>
</g>
<g filter="url(#filter6_f_1776_31957)">
<path d="M28 20.3872C28.3333 17.0539 30.7 11.7872 37.5 17.3872C40.3333 14.8872 46.4 11.9872 48 20.3872" stroke="white" stroke-linecap="round"/>
</g>
<g filter="url(#filter7_f_1776_31957)">
<path d="M24.5879 43.7998C21.2546 43.4665 15.9879 41.0998 21.5879 34.2998C19.0879 31.4665 16.1879 25.3998 24.5879 23.7998" stroke="white" stroke-linecap="round"/>
</g>
<g filter="url(#filter8_f_1776_31957)">
<path d="M48 47.7998C47.6667 51.1331 45.3 56.3998 38.5 50.7998C35.6667 53.2998 29.6 56.1998 28 47.7998" stroke="white" stroke-linecap="round"/>
</g>
<g filter="url(#filter9_di_1776_31957)">
<path d="M52.8106 32.1523C52.3391 32.8334 51.4047 33.0033 50.7235 32.5318C50.0424 32.0602 49.8725 31.1258 50.344 30.4447C50.8156 29.7636 52.0346 29.1826 52.7157 29.6541C53.3969 30.1256 53.2822 31.4712 52.8106 32.1523Z" fill="#E8FFE1" fill-opacity="0.4" shape-rendering="crispEdges"/>
</g>
<g filter="url(#filter10_f_1776_31957)">
<path d="M51.9041 30.9744C51.7704 31.1502 51.5194 31.1844 51.3436 31.0506C51.1677 30.9169 51.1336 30.666 51.2673 30.4901C51.401 30.3143 51.7168 30.1948 51.8927 30.3285C52.0685 30.4623 52.0378 30.7985 51.9041 30.9744Z" fill="white"/>
</g>
<g filter="url(#filter11_f_1776_31957)">
<path d="M51.6591 31.7867C51.5922 31.8747 51.4667 31.8917 51.3788 31.8249C51.2909 31.758 51.2738 31.6325 51.3407 31.5446C51.4075 31.4567 51.5654 31.397 51.6533 31.4638C51.7413 31.5307 51.7259 31.6988 51.6591 31.7867Z" fill="white"/>
</g>
<g filter="url(#filter12_di_1776_31957)">
<circle cx="49.0227" cy="36.1013" r="0.8" fill="#E8FFE1" fill-opacity="0.4" shape-rendering="crispEdges"/>
</g>
<g filter="url(#filter13_f_1776_31957)">
<path d="M49.1102 35.9869C49.0434 36.0749 48.9179 36.0919 48.83 36.0251C48.742 35.9582 48.725 35.8327 48.7918 35.7448C48.8587 35.6569 49.0166 35.5972 49.1045 35.664C49.1924 35.7309 49.1771 35.899 49.1102 35.9869Z" fill="white"/>
</g>
<defs>
<filter id="filter0_i_1776_31957" x="38.6815" y="33.3232" width="16.2859" height="33.6837" filterUnits="userSpaceOnUse" color-interpolation-filters="sRGB">
<feFlood flood-opacity="0" result="BackgroundImageFix"/>
<feBlend mode="normal" in="SourceGraphic" in2="BackgroundImageFix" result="shape"/>
<feColorMatrix in="SourceAlpha" type="matrix" values="0 0 0 0 0 0 0 0 0 0 0 0 0 0 0 0 0 0 127 0" result="hardAlpha"/>
<feOffset dx="-1" dy="-1"/>
<feGaussianBlur stdDeviation="0.65"/>
<feComposite in2="hardAlpha" operator="arithmetic" k2="-1" k3="1"/>
<feColorMatrix type="matrix" values="0 0 0 0 0 0 0 0 0 0 0 0 0 0 0 0 0 0 0.25 0"/>
<feBlend mode="normal" in2="shape" result="effect1_innerShadow_1776_31957"/>
</filter>
<filter id="filter1_i_1776_31957" x="23.8678" y="9.79993" width="27.2703" height="24.909" filterUnits="userSpaceOnUse" color-interpolation-filters="sRGB">
<feFlood flood-opacity="0" result="BackgroundImageFix"/>
<feBlend mode="normal" in="SourceGraphic" in2="BackgroundImageFix" result="shape"/>
<feColorMatrix in="SourceAlpha" type="matrix" values="0 0 0 0 0 0 0 0 0 0 0 0 0 0 0 0 0 0 127 0" result="hardAlpha"/>
<feOffset dx="-1" dy="-1"/>
<feGaussianBlur stdDeviation="2"/>
<feComposite in2="hardAlpha" operator="arithmetic" k2="-1" k3="1"/>
<feColorMatrix type="matrix" values="0 0 0 0 0 0 0 0 0 0 0 0 0 0 0 0 0 0 0.25 0"/>
<feBlend mode="normal" in2="shape" result="effect1_innerShadow_1776_31957"/>
</filter>
<filter id="filter2_i_1776_31957" x="23.8662" y="33.754" width="27.2703" height="24.909" filterUnits="userSpaceOnUse" color-interpolation-filters="sRGB">
<feFlood flood-opacity="0" result="BackgroundImageFix"/>
<feBlend mode="normal" in="SourceGraphic" in2="BackgroundImageFix" result="shape"/>
<feColorMatrix in="SourceAlpha" type="matrix" values="0 0 0 0 0 0 0 0 0 0 0 0 0 0 0 0 0 0 127 0" result="hardAlpha"/>
<feOffset dx="-1" dy="-1"/>
<feGaussianBlur stdDeviation="2"/>
<feComposite in2="hardAlpha" operator="arithmetic" k2="-1" k3="1"/>
<feColorMatrix type="matrix" values="0 0 0 0 0 0 0 0 0 0 0 0 0 0 0 0 0 0 0.25 0"/>
<feBlend mode="normal" in2="shape" result="effect1_innerShadow_1776_31957"/>
</filter>
<filter id="filter3_i_1776_31957" x="37.0316" y="20.6339" width="24.9684" height="27.1953" filterUnits="userSpaceOnUse" color-interpolation-filters="sRGB">
<feFlood flood-opacity="0" result="BackgroundImageFix"/>
<feBlend mode="normal" in="SourceGraphic" in2="BackgroundImageFix" result="shape"/>
<feColorMatrix in="SourceAlpha" type="matrix" values="0 0 0 0 0 0 0 0 0 0 0 0 0 0 0 0 0 0 127 0" result="hardAlpha"/>
<feOffset dx="-1" dy="-1"/>
<feGaussianBlur stdDeviation="2"/>
<feComposite in2="hardAlpha" operator="arithmetic" k2="-1" k3="1"/>
<feColorMatrix type="matrix" values="0 0 0 0 0 0 0 0 0 0 0 0 0 0 0 0 0 0 0.25 0"/>
<feBlend mode="normal" in2="shape" result="effect1_innerShadow_1776_31957"/>
</filter>
<filter id="filter4_i_1776_31957" x="13" y="20.6338" width="24.9684" height="27.1953" filterUnits="userSpaceOnUse" color-interpolation-filters="sRGB">
<feFlood flood-opacity="0" result="BackgroundImageFix"/>
<feBlend mode="normal" in="SourceGraphic" in2="BackgroundImageFix" result="shape"/>
<feColorMatrix in="SourceAlpha" type="matrix" values="0 0 0 0 0 0 0 0 0 0 0 0 0 0 0 0 0 0 127 0" result="hardAlpha"/>
<feOffset dx="-1" dy="-1"/>
<feGaussianBlur stdDeviation="2"/>
<feComposite in2="hardAlpha" operator="arithmetic" k2="-1" k3="1"/>
<feColorMatrix type="matrix" values="0 0 0 0 0 0 0 0 0 0 0 0 0 0 0 0 0 0 0.25 0"/>
<feBlend mode="normal" in2="shape" result="effect1_innerShadow_1776_31957"/>
</filter>
<filter id="filter5_f_1776_31957" x="46.7999" y="18.0997" width="17.9877" height="32.4001" filterUnits="userSpaceOnUse" color-interpolation-filters="sRGB">
<feFlood flood-opacity="0" result="BackgroundImageFix"/>
<feBlend mode="normal" in="SourceGraphic" in2="BackgroundImageFix" result="shape"/>
<feGaussianBlur stdDeviation="2.85" result="effect1_foregroundBlur_1776_31957"/>
</filter>
<filter id="filter6_f_1776_31957" x="21.8" y="8.59962" width="32.4001" height="17.9876" filterUnits="userSpaceOnUse" color-interpolation-filters="sRGB">
<feFlood flood-opacity="0" result="BackgroundImageFix"/>
<feBlend mode="normal" in="SourceGraphic" in2="BackgroundImageFix" result="shape"/>
<feGaussianBlur stdDeviation="2.85" result="effect1_foregroundBlur_1776_31957"/>
</filter>
<filter id="filter7_f_1776_31957" x="12.8003" y="17.5997" width="17.9877" height="32.4001" filterUnits="userSpaceOnUse" color-interpolation-filters="sRGB">
<feFlood flood-opacity="0" result="BackgroundImageFix"/>
<feBlend mode="normal" in="SourceGraphic" in2="BackgroundImageFix" result="shape"/>
<feGaussianBlur stdDeviation="2.85" result="effect1_foregroundBlur_1776_31957"/>
</filter>
<filter id="filter8_f_1776_31957" x="21.7999" y="41.5997" width="32.4001" height="17.9877" filterUnits="userSpaceOnUse" color-interpolation-filters="sRGB">
<feFlood flood-opacity="0" result="BackgroundImageFix"/>
<feBlend mode="normal" in="SourceGraphic" in2="BackgroundImageFix" result="shape"/>
<feGaussianBlur stdDeviation="2.85" result="effect1_foregroundBlur_1776_31957"/>
</filter>
<filter id="filter9_di_1776_31957" x="49.7772" y="28.9829" width="5.11827" height="5.31573" filterUnits="userSpaceOnUse" color-interpolation-filters="sRGB">
<feFlood flood-opacity="0" result="BackgroundImageFix"/>
<feColorMatrix in="SourceAlpha" type="matrix" values="0 0 0 0 0 0 0 0 0 0 0 0 0 0 0 0 0 0 127 0" result="hardAlpha"/>
<feOffset dx="0.7" dy="0.5"/>
<feGaussianBlur stdDeviation="0.5"/>
<feComposite in2="hardAlpha" operator="out"/>
<feColorMatrix type="matrix" values="0 0 0 0 0.364639 0 0 0 0 0.679857 0 0 0 0 0.272553 0 0 0 1 0"/>
<feBlend mode="normal" in2="BackgroundImageFix" result="effect1_dropShadow_1776_31957"/>
<feBlend mode="normal" in="SourceGraphic" in2="effect1_dropShadow_1776_31957" result="shape"/>
<feColorMatrix in="SourceAlpha" type="matrix" values="0 0 0 0 0 0 0 0 0 0 0 0 0 0 0 0 0 0 127 0" result="hardAlpha"/>
<feOffset dx="-0.2" dy="-0.2"/>
<feGaussianBlur stdDeviation="0.35"/>
<feComposite in2="hardAlpha" operator="arithmetic" k2="-1" k3="1"/>
<feColorMatrix type="matrix" values="0 0 0 0 1 0 0 0 0 1 0 0 0 0 1 0 0 0 0.25 0"/>
<feBlend mode="normal" in2="shape" result="effect2_innerShadow_1776_31957"/>
</filter>
<filter id="filter10_f_1776_31957" x="50.4857" y="29.5712" width="2.22891" height="2.26102" filterUnits="userSpaceOnUse" color-interpolation-filters="sRGB">
<feFlood flood-opacity="0" result="BackgroundImageFix"/>
<feBlend mode="normal" in="SourceGraphic" in2="BackgroundImageFix" result="shape"/>
<feGaussianBlur stdDeviation="0.35" result="effect1_foregroundBlur_1776_31957"/>
</filter>
<filter id="filter11_f_1776_31957" x="50.8998" y="31.0352" width="1.21445" height="1.23054" filterUnits="userSpaceOnUse" color-interpolation-filters="sRGB">
<feFlood flood-opacity="0" result="BackgroundImageFix"/>
<feBlend mode="normal" in="SourceGraphic" in2="BackgroundImageFix" result="shape"/>
<feGaussianBlur stdDeviation="0.2" result="effect1_foregroundBlur_1776_31957"/>
</filter>
<filter id="filter12_di_1776_31957" x="47.9827" y="34.9013" width="3.2" height="3.19998" filterUnits="userSpaceOnUse" color-interpolation-filters="sRGB">
<feFlood flood-opacity="0" result="BackgroundImageFix"/>
<feColorMatrix in="SourceAlpha" type="matrix" values="0 0 0 0 0 0 0 0 0 0 0 0 0 0 0 0 0 0 127 0" result="hardAlpha"/>
<feOffset dx="0.56" dy="0.4"/>
<feGaussianBlur stdDeviation="0.4"/>
<feComposite in2="hardAlpha" operator="out"/>
<feColorMatrix type="matrix" values="0 0 0 0 0.364639 0 0 0 0 0.679857 0 0 0 0 0.272553 0 0 0 1 0"/>
<feBlend mode="normal" in2="BackgroundImageFix" result="effect1_dropShadow_1776_31957"/>
<feBlend mode="normal" in="SourceGraphic" in2="effect1_dropShadow_1776_31957" result="shape"/>
<feColorMatrix in="SourceAlpha" type="matrix" values="0 0 0 0 0 0 0 0 0 0 0 0 0 0 0 0 0 0 127 0" result="hardAlpha"/>
<feOffset dx="-0.16" dy="-0.16"/>
<feGaussianBlur stdDeviation="0.28"/>
<feComposite in2="hardAlpha" operator="arithmetic" k2="-1" k3="1"/>
<feColorMatrix type="matrix" values="0 0 0 0 1 0 0 0 0 1 0 0 0 0 1 0 0 0 0.25 0"/>
<feBlend mode="normal" in2="shape" result="effect2_innerShadow_1776_31957"/>
</filter>
<filter id="filter13_f_1776_31957" x="48.351" y="35.2354" width="1.21445" height="1.23054" filterUnits="userSpaceOnUse" color-interpolation-filters="sRGB">
<feFlood flood-opacity="0" result="BackgroundImageFix"/>
<feBlend mode="normal" in="SourceGraphic" in2="BackgroundImageFix" result="shape"/>
<feGaussianBlur stdDeviation="0.2" result="effect1_foregroundBlur_1776_31957"/>
</filter>
<linearGradient id="paint0_linear_1776_31957" x1="45.9997" y1="38.2997" x2="49.54" y2="67.2948" gradientUnits="userSpaceOnUse">
<stop stop-color="#275319"/>
<stop offset="0.602097" stop-color="#4EA632"/>
<stop offset="1" stop-color="#57B938"/>
</linearGradient>
<linearGradient id="paint1_linear_1776_31957" x1="38.003" y1="10.7999" x2="38.003" y2="36.0774" gradientUnits="userSpaceOnUse">
<stop stop-color="#78E954"/>
<stop offset="1" stop-color="#57B938"/>
</linearGradient>
<linearGradient id="paint2_linear_1776_31957" x1="38.0014" y1="58.663" x2="38.0014" y2="33.3856" gradientUnits="userSpaceOnUse">
<stop stop-color="#78E954"/>
<stop offset="1" stop-color="#57B938"/>
</linearGradient>
<linearGradient id="paint3_linear_1776_31957" x1="62" y1="34.7315" x2="36.6501" y2="34.7315" gradientUnits="userSpaceOnUse">
<stop stop-color="#78E954"/>
<stop offset="1" stop-color="#57B938"/>
</linearGradient>
<linearGradient id="paint4_linear_1776_31957" x1="14" y1="34.7314" x2="39.3499" y2="34.7314" gradientUnits="userSpaceOnUse">
<stop stop-color="#78E954"/>
<stop offset="1" stop-color="#57B938"/>
</linearGradient>
</defs>
</svg>
