<svg width="76" height="79" viewBox="0 0 76 79" fill="none" xmlns="http://www.w3.org/2000/svg">
<path d="M36.2837 44.1886C46.1669 47.9003 55.8751 46.1187 57.9676 40.2093C60.0601 34.2999 53.7445 26.5005 43.8613 22.7889C33.9781 19.0772 24.2698 20.8588 22.1773 26.7682C20.0849 32.6776 26.4005 40.477 36.2837 44.1886Z" fill="#964C2C"/>
<g filter="url(#filter0_i_1776_31958)">
<path d="M45.4973 17.4433C53.0765 20.2072 58.9852 24.449 61.3048 28.3542L63.57 29.1802L61.9902 33.5125L61.97 33.5051C59.8648 37.8567 49.9025 38.3059 39.2994 34.4393C28.6965 30.5727 21.3619 23.816 22.5521 19.1308L22.5429 19.1274L22.5814 19.0219C22.6076 18.9296 22.6361 18.8378 22.6691 18.7472C22.7022 18.6565 22.7397 18.5674 22.7791 18.4797L24.1228 14.7952L26.3779 15.6175C30.6669 14.1224 37.9185 14.6796 45.4973 17.4433Z" fill="url(#paint0_linear_1776_31958)"/>
</g>
<g filter="url(#filter1_i_1776_31958)">
<path d="M42.91 63.4225L42.9063 63.4212C41.141 67.247 34.5158 68.3872 27.8034 65.9394C21.0912 63.4916 16.756 58.3545 17.8678 54.2905L17.8642 54.2891L24.075 23.1819L58.1817 35.6194L42.91 63.4225Z" fill="url(#paint1_linear_1776_31958)"/>
</g>
<g filter="url(#filter2_i_1776_31958)">
<path d="M45.4973 17.4422C53.0758 20.2058 58.9841 24.4469 61.3042 28.3518L63.5703 29.1782L61.9902 33.5114L61.97 33.504C59.8646 37.8555 49.9024 38.3048 39.2994 34.4382C28.6966 30.5717 21.362 23.8149 22.5521 19.1297L22.5429 19.1263L22.5814 19.0208C22.6077 18.9284 22.6363 18.836 22.6694 18.7452C22.7026 18.6543 22.74 18.5655 22.7795 18.4777L24.1231 14.7931L26.3791 15.6158C30.6683 14.1213 37.9192 14.6788 45.4973 17.4422Z" fill="url(#paint2_linear_1776_31958)"/>
</g>
<ellipse cx="43.8478" cy="21.9635" rx="20.9995" ry="9.04497" transform="rotate(20.0352 43.8478 21.9635)" fill="url(#paint3_linear_1776_31958)"/>
<g filter="url(#filter3_f_1776_31958)">
<path d="M60.0732 22.9036L41.3368 27.8157L56.948 31.4737L61.2995 30.1849L61.7263 26.3793L60.0732 22.9036Z" fill="#363B4D"/>
</g>
<g filter="url(#filter4_ii_1776_31958)">
<path d="M46.694 14.1649C51.8252 16.0361 55.9742 18.7957 58.1906 21.5246L61.2357 22.635L59.6793 26.9031L59.6737 26.901C58.1041 30.5448 50.1316 31.023 41.6715 27.9379C33.2112 24.8527 27.4172 19.3544 28.5617 15.5555L28.5571 15.5538L30.1135 11.2858L33.1576 12.3959C36.6104 11.7342 41.5625 12.2936 46.694 14.1649Z" fill="#31343E"/>
<path d="M46.694 14.1649C51.8252 16.0361 55.9742 18.7957 58.1906 21.5246L61.2357 22.635L59.6793 26.9031L59.6737 26.901C58.1041 30.5448 50.1316 31.023 41.6715 27.9379C33.2112 24.8527 27.4172 19.3544 28.5617 15.5555L28.5571 15.5538L30.1135 11.2858L33.1576 12.3959C36.6104 11.7342 41.5625 12.2936 46.694 14.1649Z" fill="url(#paint4_linear_1776_31958)"/>
</g>
<ellipse cx="45.68" cy="16.9454" rx="16.5636" ry="7.33011" transform="rotate(20.0352 45.68 16.9454)" fill="url(#paint5_linear_1776_31958)"/>
<ellipse cx="45.8239" cy="16.5519" rx="13.6344" ry="5.39126" transform="rotate(20.0352 45.8239 16.5519)" fill="url(#paint6_linear_1776_31958)"/>
<ellipse cx="45.6992" cy="16.9009" rx="13.2869" ry="5.02037" transform="rotate(20.0352 45.6992 16.9009)" fill="url(#paint7_linear_1776_31958)"/>
<path d="M31.5779 13.5902C31.8072 14.4475 32.8171 16.5361 35.0221 18.0323" stroke="url(#paint8_linear_1776_31958)" stroke-width="1.1246" stroke-linecap="round"/>
<g filter="url(#filter5_i_1776_31958)">
<path d="M36.3567 43.9588C26.4162 40.2257 21.2119 32.7404 22.1484 26.5126L19.0587 44.6913C18.3043 50.0636 22.6243 56.1556 30.933 59.2759C39.2416 62.3962 46.3486 60.5832 49.1362 55.987L58.1348 40.0273C54.9586 45.414 46.2933 47.703 36.3528 43.9699L36.3567 43.9588Z" fill="url(#paint9_linear_1776_31958)"/>
</g>
<g filter="url(#filter6_d_1776_31958)">
<path d="M57.3516 39.6653C55.4475 45.0428 46.2118 46.5433 36.753 42.991C27.2941 39.4387 21.1752 32.1717 23.0793 26.7942C23.29 26.1992 23.5692 25.4493 23.9501 24.9556C23.7489 24.6678 23.6655 24.5052 23.5004 24.2185C22.9607 24.8523 22.4547 25.6483 22.1698 26.4527C20.0784 32.3591 26.4183 40.2688 36.3907 44.014C46.3632 47.7592 56.1843 45.9063 58.2757 39.9998C58.5567 39.2064 58.557 38.1541 58.5441 37.3003C58.2385 37.4103 58.0277 37.4904 57.6939 37.5773C57.6729 38.2186 57.5808 39.0522 57.3662 39.6583L57.3516 39.6653Z" fill="url(#paint10_linear_1776_31958)"/>
</g>
<defs>
<filter id="filter0_i_1776_31958" x="22.4256" y="14.7952" width="42.269" height="26.779" filterUnits="userSpaceOnUse" color-interpolation-filters="sRGB">
<feFlood flood-opacity="0" result="BackgroundImageFix"/>
<feBlend mode="normal" in="SourceGraphic" in2="BackgroundImageFix" result="shape"/>
<feColorMatrix in="SourceAlpha" type="matrix" values="0 0 0 0 0 0 0 0 0 0 0 0 0 0 0 0 0 0 127 0" result="hardAlpha"/>
<feOffset dx="1.1246" dy="4.49839"/>
<feGaussianBlur stdDeviation="2.2492"/>
<feComposite in2="hardAlpha" operator="arithmetic" k2="-1" k3="1"/>
<feColorMatrix type="matrix" values="0 0 0 0 0 0 0 0 0 0 0 0 0 0 0 0 0 0 0.25 0"/>
<feBlend mode="normal" in2="shape" result="effect1_innerShadow_1776_31958"/>
</filter>
<filter id="filter1_i_1776_31958" x="16.5696" y="23.1819" width="41.6121" height="44.0483" filterUnits="userSpaceOnUse" color-interpolation-filters="sRGB">
<feFlood flood-opacity="0" result="BackgroundImageFix"/>
<feBlend mode="normal" in="SourceGraphic" in2="BackgroundImageFix" result="shape"/>
<feColorMatrix in="SourceAlpha" type="matrix" values="0 0 0 0 0 0 0 0 0 0 0 0 0 0 0 0 0 0 127 0" result="hardAlpha"/>
<feOffset dx="-1.1246"/>
<feGaussianBlur stdDeviation="2.2492"/>
<feComposite in2="hardAlpha" operator="arithmetic" k2="-1" k3="1"/>
<feColorMatrix type="matrix" values="0 0 0 0 1 0 0 0 0 1 0 0 0 0 1 0 0 0 1 0"/>
<feBlend mode="normal" in2="shape" result="effect1_innerShadow_1776_31958"/>
</filter>
<filter id="filter2_i_1776_31958" x="22.4256" y="14.7932" width="42.2693" height="26.7799" filterUnits="userSpaceOnUse" color-interpolation-filters="sRGB">
<feFlood flood-opacity="0" result="BackgroundImageFix"/>
<feBlend mode="normal" in="SourceGraphic" in2="BackgroundImageFix" result="shape"/>
<feColorMatrix in="SourceAlpha" type="matrix" values="0 0 0 0 0 0 0 0 0 0 0 0 0 0 0 0 0 0 127 0" result="hardAlpha"/>
<feOffset dx="1.1246" dy="4.49839"/>
<feGaussianBlur stdDeviation="2.2492"/>
<feComposite in2="hardAlpha" operator="arithmetic" k2="-1" k3="1"/>
<feColorMatrix type="matrix" values="0 0 0 0 0 0 0 0 0 0 0 0 0 0 0 0 0 0 0.25 0"/>
<feBlend mode="normal" in2="shape" result="effect1_innerShadow_1776_31958"/>
</filter>
<filter id="filter3_f_1776_31958" x="39.0876" y="20.6544" width="24.8879" height="13.0684" filterUnits="userSpaceOnUse" color-interpolation-filters="sRGB">
<feFlood flood-opacity="0" result="BackgroundImageFix"/>
<feBlend mode="normal" in="SourceGraphic" in2="BackgroundImageFix" result="shape"/>
<feGaussianBlur stdDeviation="1.1246" result="effect1_foregroundBlur_1776_31958"/>
</filter>
<filter id="filter4_ii_1776_31958" x="28.4176" y="11.2858" width="32.8181" height="23.1872" filterUnits="userSpaceOnUse" color-interpolation-filters="sRGB">
<feFlood flood-opacity="0" result="BackgroundImageFix"/>
<feBlend mode="normal" in="SourceGraphic" in2="BackgroundImageFix" result="shape"/>
<feColorMatrix in="SourceAlpha" type="matrix" values="0 0 0 0 0 0 0 0 0 0 0 0 0 0 0 0 0 0 127 0" result="hardAlpha"/>
<feOffset dy="1.1246"/>
<feGaussianBlur stdDeviation="1.1246"/>
<feComposite in2="hardAlpha" operator="arithmetic" k2="-1" k3="1"/>
<feColorMatrix type="matrix" values="0 0 0 0 0 0 0 0 0 0 0 0 0 0 0 0 0 0 0.25 0"/>
<feBlend mode="normal" in2="shape" result="effect1_innerShadow_1776_31958"/>
<feColorMatrix in="SourceAlpha" type="matrix" values="0 0 0 0 0 0 0 0 0 0 0 0 0 0 0 0 0 0 127 0" result="hardAlpha"/>
<feOffset dy="4.49839"/>
<feGaussianBlur stdDeviation="2.2492"/>
<feComposite in2="hardAlpha" operator="arithmetic" k2="-1" k3="1"/>
<feColorMatrix type="matrix" values="0 0 0 0 0 0 0 0 0 0 0 0 0 0 0 0 0 0 0.25 0"/>
<feBlend mode="normal" in2="effect1_innerShadow_1776_31958" result="effect2_innerShadow_1776_31958"/>
</filter>
<filter id="filter5_i_1776_31958" x="17.8495" y="26.5126" width="40.2853" height="34.3197" filterUnits="userSpaceOnUse" color-interpolation-filters="sRGB">
<feFlood flood-opacity="0" result="BackgroundImageFix"/>
<feBlend mode="normal" in="SourceGraphic" in2="BackgroundImageFix" result="shape"/>
<feColorMatrix in="SourceAlpha" type="matrix" values="0 0 0 0 0 0 0 0 0 0 0 0 0 0 0 0 0 0 127 0" result="hardAlpha"/>
<feOffset dx="-1.1246"/>
<feGaussianBlur stdDeviation="1.6869"/>
<feComposite in2="hardAlpha" operator="arithmetic" k2="-1" k3="1"/>
<feColorMatrix type="matrix" values="0 0 0 0 0.875319 0 0 0 0 0.630039 0 0 0 0 0.497299 0 0 0 1 0"/>
<feBlend mode="normal" in2="shape" result="effect1_innerShadow_1776_31958"/>
</filter>
<filter id="filter6_d_1776_31958" x="17.7711" y="18.2184" width="44.7772" height="29.7369" filterUnits="userSpaceOnUse" color-interpolation-filters="sRGB">
<feFlood flood-opacity="0" result="BackgroundImageFix"/>
<feColorMatrix in="SourceAlpha" type="matrix" values="0 0 0 0 0 0 0 0 0 0 0 0 0 0 0 0 0 0 127 0" result="hardAlpha"/>
<feOffset dy="-2"/>
<feGaussianBlur stdDeviation="2"/>
<feComposite in2="hardAlpha" operator="out"/>
<feColorMatrix type="matrix" values="0 0 0 0 0 0 0 0 0 0 0 0 0 0 0 0 0 0 0.25 0"/>
<feBlend mode="normal" in2="BackgroundImageFix" result="effect1_dropShadow_1776_31958"/>
<feBlend mode="normal" in="SourceGraphic" in2="effect1_dropShadow_1776_31958" result="shape"/>
</filter>
<linearGradient id="paint0_linear_1776_31958" x1="25.808" y1="12.7719" x2="58.9092" y2="43.6732" gradientUnits="userSpaceOnUse">
<stop stop-color="#828AA4"/>
<stop offset="1" stop-color="#262B3A"/>
</linearGradient>
<linearGradient id="paint1_linear_1776_31958" x1="25.7824" y1="20.4612" x2="39.701" y2="67.1841" gradientUnits="userSpaceOnUse">
<stop stop-color="#E9EBF8"/>
<stop offset="1" stop-color="#B9BDD8"/>
</linearGradient>
<linearGradient id="paint2_linear_1776_31958" x1="25.808" y1="12.7708" x2="58.9092" y2="43.6721" gradientUnits="userSpaceOnUse">
<stop stop-color="#828AA4"/>
<stop offset="1" stop-color="#262B3A"/>
</linearGradient>
<linearGradient id="paint3_linear_1776_31958" x1="31.1988" y1="28.9311" x2="41.1139" y2="8.25953" gradientUnits="userSpaceOnUse">
<stop stop-color="#828AA4"/>
<stop offset="1" stop-color="#333745"/>
</linearGradient>
<linearGradient id="paint4_linear_1776_31958" x1="29.8044" y1="12.1334" x2="57.9904" y2="33.1885" gradientUnits="userSpaceOnUse">
<stop stop-color="#6F7895"/>
<stop offset="1" stop-color="#262B3A"/>
</linearGradient>
<linearGradient id="paint5_linear_1776_31958" x1="35.7029" y1="22.592" x2="55.7142" y2="11.5405" gradientUnits="userSpaceOnUse">
<stop stop-color="#828AA4"/>
<stop offset="1" stop-color="#4A5168"/>
</linearGradient>
<linearGradient id="paint6_linear_1776_31958" x1="45.8239" y1="11.1606" x2="45.8239" y2="21.9431" gradientUnits="userSpaceOnUse">
<stop stop-color="#2A2F3D"/>
<stop offset="1" stop-color="#31343E"/>
</linearGradient>
<linearGradient id="paint7_linear_1776_31958" x1="35.0505" y1="13.7651" x2="55.9088" y2="19.6811" gradientUnits="userSpaceOnUse">
<stop stop-color="#8D94A8"/>
<stop offset="1" stop-color="#676E81"/>
</linearGradient>
<linearGradient id="paint8_linear_1776_31958" x1="32.2847" y1="15.9845" x2="34.1256" y2="14.5193" gradientUnits="userSpaceOnUse">
<stop stop-color="#26282E"/>
<stop offset="1" stop-color="#474D60"/>
</linearGradient>
<linearGradient id="paint9_linear_1776_31958" x1="24.8885" y1="36.344" x2="42.3263" y2="60.8225" gradientUnits="userSpaceOnUse">
<stop stop-color="#E2925D"/>
<stop offset="1" stop-color="#A44D1F"/>
</linearGradient>
<linearGradient id="paint10_linear_1776_31958" x1="27.1972" y1="37.9391" x2="59.1132" y2="33.8051" gradientUnits="userSpaceOnUse">
<stop stop-color="#F2B998"/>
<stop offset="1" stop-color="#BB6A3F"/>
</linearGradient>
</defs>
</svg>
