<svg width="76" height="76" viewBox="0 0 76 76" fill="none" xmlns="http://www.w3.org/2000/svg">
<path d="M36.2844 42.9078C46.1676 46.5119 55.8758 44.7819 57.9683 39.0438C60.0608 33.3057 53.7452 25.7324 43.8619 22.1283C33.9787 18.5242 24.2705 20.2542 22.178 25.9923C20.0855 31.7304 26.4011 39.3037 36.2844 42.9078Z" fill="#964C2C"/>
<g filter="url(#filter0_i_1148_18349)">
<path d="M45.4977 17.4433C53.0769 20.2072 58.9855 24.449 61.3051 28.3542L63.5704 29.1802L61.9905 33.5125L61.9704 33.5051C59.8651 37.8567 49.9028 38.3059 39.2998 34.4393C28.6969 30.5727 21.3622 23.816 22.5525 19.1308L22.5433 19.1274L22.5818 19.0219C22.608 18.9296 22.6364 18.8378 22.6695 18.7472C22.7026 18.6565 22.7401 18.5674 22.7795 18.4797L24.1231 14.7952L26.3782 15.6175C30.6672 14.1224 37.9188 14.6796 45.4977 17.4433Z" fill="url(#paint0_linear_1148_18349)"/>
</g>
<g filter="url(#filter1_i_1148_18349)">
<path d="M42.9102 63.4225L42.9065 63.4211C41.1412 67.2469 34.5159 68.3871 27.8036 65.9394C21.0914 63.4916 16.7562 58.3545 17.868 54.2904L17.8643 54.2891L24.0752 23.1819L58.1819 35.6194L42.9102 63.4225Z" fill="url(#paint1_linear_1148_18349)"/>
</g>
<g filter="url(#filter2_i_1148_18349)">
<path d="M45.4977 17.4422C53.0762 20.2058 58.9845 24.4469 61.3046 28.3518L63.5707 29.1782L61.9905 33.5114L61.9704 33.504C59.865 37.8555 49.9027 38.3048 39.2998 34.4382C28.6969 30.5717 21.3624 23.8149 22.5525 19.1297L22.5433 19.1263L22.5818 19.0208C22.608 18.9284 22.6367 18.836 22.6698 18.7452C22.7029 18.6543 22.7404 18.5655 22.7798 18.4777L24.1235 14.7931L26.3795 15.6158C30.6687 14.1213 37.9195 14.6788 45.4977 17.4422Z" fill="url(#paint2_linear_1148_18349)"/>
</g>
<ellipse cx="43.8487" cy="21.9635" rx="20.9995" ry="9.04497" transform="rotate(20.0352 43.8487 21.9635)" fill="url(#paint3_linear_1148_18349)"/>
<g filter="url(#filter3_f_1148_18349)">
<path d="M60.0734 22.9036L41.337 27.8157L56.9482 31.4737L61.2997 30.1849L61.7265 26.3793L60.0734 22.9036Z" fill="#363B4D"/>
</g>
<g filter="url(#filter4_ii_1148_18349)">
<path d="M46.6949 14.1649C51.8261 16.0361 55.9751 18.7957 58.1915 21.5246L61.2365 22.635L59.6801 26.9031L59.6746 26.901C58.105 30.5448 50.1325 31.023 41.6723 27.9379C33.2121 24.8527 27.418 19.3544 28.5625 15.5555L28.558 15.5538L30.1144 11.2858L33.1585 12.3959C36.6113 11.7342 41.5633 12.2936 46.6949 14.1649Z" fill="#31343E"/>
<path d="M46.6949 14.1649C51.8261 16.0361 55.9751 18.7957 58.1915 21.5246L61.2365 22.635L59.6801 26.9031L59.6746 26.901C58.105 30.5448 50.1325 31.023 41.6723 27.9379C33.2121 24.8527 27.418 19.3544 28.5625 15.5555L28.558 15.5538L30.1144 11.2858L33.1585 12.3959C36.6113 11.7342 41.5633 12.2936 46.6949 14.1649Z" fill="url(#paint4_linear_1148_18349)"/>
</g>
<ellipse cx="45.6808" cy="16.9454" rx="16.5636" ry="7.33011" transform="rotate(20.0352 45.6808 16.9454)" fill="url(#paint5_linear_1148_18349)"/>
<ellipse cx="45.8246" cy="16.5518" rx="13.6344" ry="5.39126" transform="rotate(20.0352 45.8246 16.5518)" fill="url(#paint6_linear_1148_18349)"/>
<ellipse cx="45.6994" cy="16.9009" rx="13.2869" ry="5.02037" transform="rotate(20.0352 45.6994 16.9009)" fill="url(#paint7_linear_1148_18349)"/>
<path d="M31.5781 13.5902C31.8074 14.4474 32.8173 16.536 35.0223 18.0322" stroke="url(#paint8_linear_1148_18349)" stroke-width="1.1246" stroke-linecap="round"/>
<g filter="url(#filter5_i_1148_18349)">
<path d="M36.3577 42.6847C26.4172 39.0597 21.213 31.7914 22.1494 25.7441L19.0597 43.3959C18.3054 48.6125 22.6254 54.5279 30.934 57.5578C39.2427 60.5877 46.3497 58.8272 49.1373 54.3642L58.1359 38.8672C54.9596 44.0977 46.2944 46.3204 36.3538 42.6954L36.3577 42.6847Z" fill="url(#paint9_linear_1148_18349)"/>
</g>
<g filter="url(#filter6_d_1148_18349)">
<path d="M57.3525 38.5156C55.4483 43.7372 46.2127 45.1942 36.7539 41.7449C27.295 38.2956 21.1761 31.2392 23.0802 26.0176C23.2909 25.4398 23.5701 24.7116 23.951 24.2322C23.7498 23.9528 23.6664 23.7949 23.5012 23.5165C22.9616 24.1319 22.4556 24.9048 22.1707 25.686C20.0793 31.4212 26.4192 39.1016 36.3916 42.7382C46.3641 46.3749 56.1852 44.5757 58.2766 38.8404C58.5575 38.07 58.5579 37.0482 58.545 36.2192C58.2394 36.3259 58.0286 36.4037 57.6948 36.4881C57.6738 37.1108 57.5817 37.9203 57.3671 38.5088L57.3525 38.5156Z" fill="url(#paint10_linear_1148_18349)"/>
</g>
<defs>
<filter id="filter0_i_1148_18349" x="22.4258" y="14.7952" width="42.2691" height="26.7791" filterUnits="userSpaceOnUse" color-interpolation-filters="sRGB">
<feFlood flood-opacity="0" result="BackgroundImageFix"/>
<feBlend mode="normal" in="SourceGraphic" in2="BackgroundImageFix" result="shape"/>
<feColorMatrix in="SourceAlpha" type="matrix" values="0 0 0 0 0 0 0 0 0 0 0 0 0 0 0 0 0 0 127 0" result="hardAlpha"/>
<feOffset dx="1.1246" dy="4.49839"/>
<feGaussianBlur stdDeviation="2.2492"/>
<feComposite in2="hardAlpha" operator="arithmetic" k2="-1" k3="1"/>
<feColorMatrix type="matrix" values="0 0 0 0 0 0 0 0 0 0 0 0 0 0 0 0 0 0 0.25 0"/>
<feBlend mode="normal" in2="shape" result="effect1_innerShadow_1148_18349"/>
</filter>
<filter id="filter1_i_1148_18349" x="16.5697" y="23.1819" width="41.6119" height="44.0482" filterUnits="userSpaceOnUse" color-interpolation-filters="sRGB">
<feFlood flood-opacity="0" result="BackgroundImageFix"/>
<feBlend mode="normal" in="SourceGraphic" in2="BackgroundImageFix" result="shape"/>
<feColorMatrix in="SourceAlpha" type="matrix" values="0 0 0 0 0 0 0 0 0 0 0 0 0 0 0 0 0 0 127 0" result="hardAlpha"/>
<feOffset dx="-1.1246"/>
<feGaussianBlur stdDeviation="2.2492"/>
<feComposite in2="hardAlpha" operator="arithmetic" k2="-1" k3="1"/>
<feColorMatrix type="matrix" values="0 0 0 0 1 0 0 0 0 1 0 0 0 0 1 0 0 0 1 0"/>
<feBlend mode="normal" in2="shape" result="effect1_innerShadow_1148_18349"/>
</filter>
<filter id="filter2_i_1148_18349" x="22.4258" y="14.7932" width="42.2691" height="26.7799" filterUnits="userSpaceOnUse" color-interpolation-filters="sRGB">
<feFlood flood-opacity="0" result="BackgroundImageFix"/>
<feBlend mode="normal" in="SourceGraphic" in2="BackgroundImageFix" result="shape"/>
<feColorMatrix in="SourceAlpha" type="matrix" values="0 0 0 0 0 0 0 0 0 0 0 0 0 0 0 0 0 0 127 0" result="hardAlpha"/>
<feOffset dx="1.1246" dy="4.49839"/>
<feGaussianBlur stdDeviation="2.2492"/>
<feComposite in2="hardAlpha" operator="arithmetic" k2="-1" k3="1"/>
<feColorMatrix type="matrix" values="0 0 0 0 0 0 0 0 0 0 0 0 0 0 0 0 0 0 0.25 0"/>
<feBlend mode="normal" in2="shape" result="effect1_innerShadow_1148_18349"/>
</filter>
<filter id="filter3_f_1148_18349" x="39.0877" y="20.6544" width="24.888" height="13.0684" filterUnits="userSpaceOnUse" color-interpolation-filters="sRGB">
<feFlood flood-opacity="0" result="BackgroundImageFix"/>
<feBlend mode="normal" in="SourceGraphic" in2="BackgroundImageFix" result="shape"/>
<feGaussianBlur stdDeviation="1.1246" result="effect1_foregroundBlur_1148_18349"/>
</filter>
<filter id="filter4_ii_1148_18349" x="28.4189" y="11.2858" width="32.8174" height="23.1873" filterUnits="userSpaceOnUse" color-interpolation-filters="sRGB">
<feFlood flood-opacity="0" result="BackgroundImageFix"/>
<feBlend mode="normal" in="SourceGraphic" in2="BackgroundImageFix" result="shape"/>
<feColorMatrix in="SourceAlpha" type="matrix" values="0 0 0 0 0 0 0 0 0 0 0 0 0 0 0 0 0 0 127 0" result="hardAlpha"/>
<feOffset dy="1.1246"/>
<feGaussianBlur stdDeviation="1.1246"/>
<feComposite in2="hardAlpha" operator="arithmetic" k2="-1" k3="1"/>
<feColorMatrix type="matrix" values="0 0 0 0 0 0 0 0 0 0 0 0 0 0 0 0 0 0 0.25 0"/>
<feBlend mode="normal" in2="shape" result="effect1_innerShadow_1148_18349"/>
<feColorMatrix in="SourceAlpha" type="matrix" values="0 0 0 0 0 0 0 0 0 0 0 0 0 0 0 0 0 0 127 0" result="hardAlpha"/>
<feOffset dy="4.49839"/>
<feGaussianBlur stdDeviation="2.2492"/>
<feComposite in2="hardAlpha" operator="arithmetic" k2="-1" k3="1"/>
<feColorMatrix type="matrix" values="0 0 0 0 0 0 0 0 0 0 0 0 0 0 0 0 0 0 0.25 0"/>
<feBlend mode="normal" in2="effect1_innerShadow_1148_18349" result="effect2_innerShadow_1148_18349"/>
</filter>
<filter id="filter5_i_1148_18349" x="17.851" y="25.7441" width="40.2848" height="33.325" filterUnits="userSpaceOnUse" color-interpolation-filters="sRGB">
<feFlood flood-opacity="0" result="BackgroundImageFix"/>
<feBlend mode="normal" in="SourceGraphic" in2="BackgroundImageFix" result="shape"/>
<feColorMatrix in="SourceAlpha" type="matrix" values="0 0 0 0 0 0 0 0 0 0 0 0 0 0 0 0 0 0 127 0" result="hardAlpha"/>
<feOffset dx="-1.1246"/>
<feGaussianBlur stdDeviation="1.6869"/>
<feComposite in2="hardAlpha" operator="arithmetic" k2="-1" k3="1"/>
<feColorMatrix type="matrix" values="0 0 0 0 0.875319 0 0 0 0 0.630039 0 0 0 0 0.497299 0 0 0 1 0"/>
<feBlend mode="normal" in2="shape" result="effect1_innerShadow_1148_18349"/>
</filter>
<filter id="filter6_d_1148_18349" x="17.7715" y="17.5165" width="44.7773" height="29.1069" filterUnits="userSpaceOnUse" color-interpolation-filters="sRGB">
<feFlood flood-opacity="0" result="BackgroundImageFix"/>
<feColorMatrix in="SourceAlpha" type="matrix" values="0 0 0 0 0 0 0 0 0 0 0 0 0 0 0 0 0 0 127 0" result="hardAlpha"/>
<feOffset dy="-2"/>
<feGaussianBlur stdDeviation="2"/>
<feComposite in2="hardAlpha" operator="out"/>
<feColorMatrix type="matrix" values="0 0 0 0 0 0 0 0 0 0 0 0 0 0 0 0 0 0 0.25 0"/>
<feBlend mode="normal" in2="BackgroundImageFix" result="effect1_dropShadow_1148_18349"/>
<feBlend mode="normal" in="SourceGraphic" in2="effect1_dropShadow_1148_18349" result="shape"/>
</filter>
<linearGradient id="paint0_linear_1148_18349" x1="25.8084" y1="12.7719" x2="58.9096" y2="43.6732" gradientUnits="userSpaceOnUse">
<stop stop-color="#828AA4"/>
<stop offset="1" stop-color="#262B3A"/>
</linearGradient>
<linearGradient id="paint1_linear_1148_18349" x1="25.7826" y1="20.4612" x2="39.7012" y2="67.1841" gradientUnits="userSpaceOnUse">
<stop stop-color="#E9EBF8"/>
<stop offset="1" stop-color="#B9BDD8"/>
</linearGradient>
<linearGradient id="paint2_linear_1148_18349" x1="25.8084" y1="12.7708" x2="58.9096" y2="43.6721" gradientUnits="userSpaceOnUse">
<stop stop-color="#828AA4"/>
<stop offset="1" stop-color="#262B3A"/>
</linearGradient>
<linearGradient id="paint3_linear_1148_18349" x1="31.1997" y1="28.9311" x2="41.1148" y2="8.2595" gradientUnits="userSpaceOnUse">
<stop stop-color="#828AA4"/>
<stop offset="1" stop-color="#333745"/>
</linearGradient>
<linearGradient id="paint4_linear_1148_18349" x1="29.8053" y1="12.1334" x2="57.9913" y2="33.1885" gradientUnits="userSpaceOnUse">
<stop stop-color="#6F7895"/>
<stop offset="1" stop-color="#262B3A"/>
</linearGradient>
<linearGradient id="paint5_linear_1148_18349" x1="35.7038" y1="22.5919" x2="55.715" y2="11.5405" gradientUnits="userSpaceOnUse">
<stop stop-color="#828AA4"/>
<stop offset="1" stop-color="#4A5168"/>
</linearGradient>
<linearGradient id="paint6_linear_1148_18349" x1="45.8246" y1="11.1605" x2="45.8246" y2="21.9431" gradientUnits="userSpaceOnUse">
<stop stop-color="#2A2F3D"/>
<stop offset="1" stop-color="#31343E"/>
</linearGradient>
<linearGradient id="paint7_linear_1148_18349" x1="35.0508" y1="13.7651" x2="55.9091" y2="19.681" gradientUnits="userSpaceOnUse">
<stop stop-color="#8D94A8"/>
<stop offset="1" stop-color="#676E81"/>
</linearGradient>
<linearGradient id="paint8_linear_1148_18349" x1="32.2849" y1="15.9844" x2="34.1259" y2="14.5193" gradientUnits="userSpaceOnUse">
<stop stop-color="#26282E"/>
<stop offset="1" stop-color="#474D60"/>
</linearGradient>
<linearGradient id="paint9_linear_1148_18349" x1="24.8895" y1="35.2905" x2="41.6536" y2="59.5256" gradientUnits="userSpaceOnUse">
<stop stop-color="#E2925D"/>
<stop offset="1" stop-color="#A44D1F"/>
</linearGradient>
<linearGradient id="paint10_linear_1148_18349" x1="27.1981" y1="36.8395" x2="59.0822" y2="32.5862" gradientUnits="userSpaceOnUse">
<stop stop-color="#F2B998"/>
<stop offset="1" stop-color="#BB6A3F"/>
</linearGradient>
</defs>
</svg>
