<svg width="76" height="79" viewBox="0 0 76 79" fill="none" xmlns="http://www.w3.org/2000/svg">
<g filter="url(#filter0_ii_1776_31956)">
<path d="M53.1242 57.8143C48.3503 62.1553 42.1415 63.1738 38.108 63.0244C36.3013 62.9574 34.72 61.9528 33.5304 60.5915L33.5297 60.5907C32.8275 59.7872 32.0182 58.8611 32.4075 57.8649C33.0761 56.1542 35.6792 53.3357 42.9658 51.053C48.8742 49.202 52.2203 49.4861 53.9054 50.2888C55.023 50.8211 55.2009 52.1847 55.0989 53.4214C54.9623 55.0787 54.3546 56.6955 53.1242 57.8143Z" fill="url(#paint0_linear_1776_31956)"/>
</g>
<g filter="url(#filter1_iiii_1776_31956)">
<path d="M17.7701 51.5358L16.7765 49.9144C14.5732 46.319 11.9928 42.519 12.685 38.352C13.6121 32.7719 18.1353 24.9276 32.0768 20.9052C43.9381 17.483 51.3388 20.1363 55.4121 23.7605C58.5272 26.5321 59.2132 30.942 59.6053 35.1006L59.7788 36.9412C60.2176 41.5943 59.6974 46.4413 57.0471 50.2948C48.9163 62.1165 36.4412 62.5456 27.7887 60.1084C23.4015 58.8726 20.1532 55.4247 17.7701 51.5358Z" fill="url(#paint1_linear_1776_31956)"/>
</g>
<g filter="url(#filter2_f_1776_31956)">
<path d="M30.9617 22.9615C16.8483 27.214 14.4658 37.2918 15.1584 41.2309L55.61 27.9807C48.6364 17.6356 36.8906 21.175 31.0228 22.9431L30.9617 22.9615Z" fill="url(#paint2_linear_1776_31956)"/>
</g>
<path d="M34.0399 21.8727C35.24 21.0908 36.6435 21.0907 37.2048 21.863C37.4781 21.6203 37.8107 21.4059 38.1893 21.2406C39.5235 20.6578 40.923 20.906 41.315 21.7951C41.3912 21.968 41.4231 22.1524 41.4162 22.3416C41.645 22.3306 41.868 22.3378 42.0821 22.3626C42.2775 22.2345 42.4929 22.1203 42.7253 22.0247C44.0687 21.4721 45.47 21.749 45.8555 22.6434C45.8613 22.657 45.8659 22.6711 45.8713 22.6849C46.3852 22.2764 46.9674 22.1165 47.4666 22.3098C48.031 22.5284 48.3558 23.1466 48.3874 23.9083C49.0723 23.816 49.6867 23.9787 50.036 24.3944C50.2837 24.1681 50.5727 24.0319 50.8842 24.0169C51.6813 23.9788 52.376 24.7458 52.6204 25.8302C53.5045 26.239 54.1405 26.9148 54.3421 27.7871C54.7808 29.6859 52.997 31.7929 50.3578 32.493C50.2893 32.5112 50.2205 32.5273 50.1523 32.5432C49.2872 35.3047 46.4919 37.9628 42.7023 39.2657C42.1654 39.4503 41.629 39.6 41.0976 39.7173C40.5821 41.0626 39.1354 42.2786 37.2523 42.7782C35.8173 43.1588 34.4251 43.0442 33.3826 42.5561C32.3639 43.0923 31.2293 43.5399 30.0107 43.8632C26.3208 44.842 22.8158 44.4367 20.7096 43.0225C20.5828 43.0783 20.4525 43.1297 20.3186 43.1757C18.1312 43.9278 15.8493 43.0446 15.2216 41.2033C14.6964 39.6622 15.4967 37.9385 17.054 36.9763C16.1568 35.6564 16.5901 33.6399 18.1772 32.0633C17.903 31.6155 17.8258 31.1319 18.0086 30.7062C18.2959 30.0371 19.144 29.6997 20.1123 29.7882C20.4687 28.9301 21.3521 28.137 22.5294 27.7322C22.8815 27.6111 23.2343 27.534 23.5771 27.4972C23.5536 27.3637 23.5512 27.2276 23.5732 27.0907C23.7181 26.1866 24.85 25.5721 26.1655 25.6445C26.4346 25.0078 27.1205 24.4078 28.0313 24.0946C28.9863 23.7664 29.9379 23.84 30.5361 24.2227C30.6329 24.1525 30.7336 24.0851 30.8378 24.0206C31.4653 23.632 32.1321 23.4105 32.7556 23.3499C32.9716 22.8144 33.4182 22.2778 34.0399 21.8727Z" fill="url(#paint3_linear_1776_31956)"/>
<path d="M17.4868 41.6896C16.725 41.9405 16.5858 42.8901 17.3197 43.2138C25.2782 46.724 47.2161 45.0893 54.1225 29.6218L17.4868 41.6896Z" fill="url(#paint4_linear_1776_31956)"/>
<ellipse cx="1.02812" cy="1.90658" rx="1.02812" ry="1.90658" transform="matrix(-0.0563054 0.998414 -0.995979 -0.0895841 30.8613 30.0176)" fill="#F7EEDB"/>
<ellipse cx="1.02812" cy="1.90658" rx="1.02812" ry="1.90658" transform="matrix(-0.0563054 0.998414 -0.995979 -0.0895841 36.0918 21.6866)" fill="#F9F5EB"/>
<ellipse cx="1.02682" cy="1.90923" rx="1.02682" ry="1.90923" transform="matrix(0.534226 0.845342 0.825101 -0.564986 23.0078 26.4334)" fill="#F9F5EB"/>
<ellipse cx="1.02518" cy="1.91176" rx="1.02518" ry="1.91176" transform="matrix(0.801803 0.597589 -0.620117 0.78451 24.9609 32.2325)" fill="#F9F5EB"/>
<ellipse cx="1.02782" cy="1.90697" rx="1.02782" ry="1.90697" transform="matrix(0.261811 0.965119 -0.972673 0.232181 21.6836 39.5536)" fill="#F7EEDB"/>
<g filter="url(#filter3_f_1776_31956)">
<path d="M46.0649 36.3221L38.1987 34.2778L38.5934 32.7972L46.7982 34.7691L46.0649 36.3221Z" fill="url(#paint5_linear_1776_31956)"/>
</g>
<g filter="url(#filter4_f_1776_31956)">
<path d="M49.4488 34.5268L41.5165 32.7596L41.8594 31.266L50.1278 32.9491L49.4488 34.5268Z" fill="url(#paint6_linear_1776_31956)"/>
</g>
<g filter="url(#filter5_i_1776_31956)">
<path d="M52.3026 8.59531C52.4488 8.32591 52.3293 8.03211 52.037 7.94236L50.4277 7.44814C50.1327 7.35752 49.7773 7.51027 49.6419 7.78593L37.317 32.8807C37.1868 33.1459 37.3091 33.4265 37.5929 33.5136L38.0971 33.6685C38.3838 33.7565 38.7292 33.6149 38.8726 33.3507L52.3026 8.59531Z" fill="#5E6973"/>
</g>
<g filter="url(#filter6_i_1776_31956)">
<path d="M55.9706 7.47036C56.1318 7.21163 56.497 7.08995 56.7822 7.19993L58.3214 7.79341C58.6093 7.90444 58.703 8.20787 58.5286 8.46448L42.6521 31.8229C42.4843 32.0699 42.1298 32.1815 41.8527 32.0746L41.379 31.892C41.0992 31.7841 41.0015 31.4934 41.1596 31.2396L55.9706 7.47036Z" fill="#5E6973"/>
</g>
<defs>
<filter id="filter0_ii_1776_31956" x="30.6117" y="49.2438" width="24.512" height="13.7944" filterUnits="userSpaceOnUse" color-interpolation-filters="sRGB">
<feFlood flood-opacity="0" result="BackgroundImageFix"/>
<feBlend mode="normal" in="SourceGraphic" in2="BackgroundImageFix" result="shape"/>
<feColorMatrix in="SourceAlpha" type="matrix" values="0 0 0 0 0 0 0 0 0 0 0 0 0 0 0 0 0 0 127 0" result="hardAlpha"/>
<feOffset dx="-22.8758"/>
<feGaussianBlur stdDeviation="0.847252"/>
<feComposite in2="hardAlpha" operator="arithmetic" k2="-1" k3="1"/>
<feColorMatrix type="matrix" values="0 0 0 0 0.137838 0 0 0 0 0.477901 0 0 0 0 0.817965 0 0 0 1 0"/>
<feBlend mode="normal" in2="shape" result="effect1_innerShadow_1776_31956"/>
<feColorMatrix in="SourceAlpha" type="matrix" values="0 0 0 0 0 0 0 0 0 0 0 0 0 0 0 0 0 0 127 0" result="hardAlpha"/>
<feOffset dx="-0.423626" dy="-0.423626"/>
<feGaussianBlur stdDeviation="1.90632"/>
<feComposite in2="hardAlpha" operator="arithmetic" k2="-1" k3="1"/>
<feColorMatrix type="matrix" values="0 0 0 0 0.762357 0 0 0 0 0.881179 0 0 0 0 1 0 0 0 1 0"/>
<feBlend mode="normal" in2="effect1_innerShadow_1776_31956" result="effect2_innerShadow_1776_31956"/>
</filter>
<filter id="filter1_iiii_1776_31956" x="10.1134" y="18.8949" width="53.744" height="42.4032" filterUnits="userSpaceOnUse" color-interpolation-filters="sRGB">
<feFlood flood-opacity="0" result="BackgroundImageFix"/>
<feBlend mode="normal" in="SourceGraphic" in2="BackgroundImageFix" result="shape"/>
<feColorMatrix in="SourceAlpha" type="matrix" values="0 0 0 0 0 0 0 0 0 0 0 0 0 0 0 0 0 0 127 0" result="hardAlpha"/>
<feOffset dx="-6.75556"/>
<feGaussianBlur stdDeviation="1.22852"/>
<feComposite in2="hardAlpha" operator="arithmetic" k2="-1" k3="1"/>
<feColorMatrix type="matrix" values="0 0 0 0 0.37831 0 0 0 0 0.683371 0 0 0 0 0.988432 0 0 0 1 0"/>
<feBlend mode="normal" in2="shape" result="effect1_innerShadow_1776_31956"/>
<feColorMatrix in="SourceAlpha" type="matrix" values="0 0 0 0 0 0 0 0 0 0 0 0 0 0 0 0 0 0 127 0" result="hardAlpha"/>
<feOffset dx="-0.844444"/>
<feGaussianBlur stdDeviation="1.26667"/>
<feComposite in2="hardAlpha" operator="arithmetic" k2="-1" k3="1"/>
<feColorMatrix type="matrix" values="0 0 0 0 0.353084 0 0 0 0 0.676542 0 0 0 0 1 0 0 0 1 0"/>
<feBlend mode="normal" in2="effect1_innerShadow_1776_31956" result="effect2_innerShadow_1776_31956"/>
<feColorMatrix in="SourceAlpha" type="matrix" values="0 0 0 0 0 0 0 0 0 0 0 0 0 0 0 0 0 0 127 0" result="hardAlpha"/>
<feOffset dx="8" dy="-0.423626"/>
<feGaussianBlur stdDeviation="1.96986"/>
<feComposite in2="hardAlpha" operator="arithmetic" k2="-1" k3="1"/>
<feColorMatrix type="matrix" values="0 0 0 0 0.55773 0 0 0 0 0.778865 0 0 0 0 1 0 0 0 1 0"/>
<feBlend mode="normal" in2="effect2_innerShadow_1776_31956" result="effect3_innerShadow_1776_31956"/>
<feColorMatrix in="SourceAlpha" type="matrix" values="0 0 0 0 0 0 0 0 0 0 0 0 0 0 0 0 0 0 127 0" result="hardAlpha"/>
<feOffset dx="1.27088" dy="-0.423626"/>
<feGaussianBlur stdDeviation="2.54176"/>
<feComposite in2="hardAlpha" operator="arithmetic" k2="-1" k3="1"/>
<feColorMatrix type="matrix" values="0 0 0 0 0.363938 0 0 0 0 0.633798 0 0 0 0 0.903658 0 0 0 1 0"/>
<feBlend mode="normal" in2="effect3_innerShadow_1776_31956" result="effect4_innerShadow_1776_31956"/>
</filter>
<filter id="filter2_f_1776_31956" x="13.357" y="19.207" width="43.9475" height="23.7184" filterUnits="userSpaceOnUse" color-interpolation-filters="sRGB">
<feFlood flood-opacity="0" result="BackgroundImageFix"/>
<feBlend mode="normal" in="SourceGraphic" in2="BackgroundImageFix" result="shape"/>
<feGaussianBlur stdDeviation="0.847252" result="effect1_foregroundBlur_1776_31956"/>
</filter>
<filter id="filter3_f_1776_31956" x="37.3543" y="31.9527" width="10.2884" height="5.21379" filterUnits="userSpaceOnUse" color-interpolation-filters="sRGB">
<feFlood flood-opacity="0" result="BackgroundImageFix"/>
<feBlend mode="normal" in="SourceGraphic" in2="BackgroundImageFix" result="shape"/>
<feGaussianBlur stdDeviation="0.422222" result="effect1_foregroundBlur_1776_31956"/>
</filter>
<filter id="filter4_f_1776_31956" x="40.672" y="30.4215" width="10.3002" height="4.94975" filterUnits="userSpaceOnUse" color-interpolation-filters="sRGB">
<feFlood flood-opacity="0" result="BackgroundImageFix"/>
<feBlend mode="normal" in="SourceGraphic" in2="BackgroundImageFix" result="shape"/>
<feGaussianBlur stdDeviation="0.422222" result="effect1_foregroundBlur_1776_31956"/>
</filter>
<filter id="filter5_i_1776_31956" x="36.4177" y="7.422" width="15.9474" height="26.2726" filterUnits="userSpaceOnUse" color-interpolation-filters="sRGB">
<feFlood flood-opacity="0" result="BackgroundImageFix"/>
<feBlend mode="normal" in="SourceGraphic" in2="BackgroundImageFix" result="shape"/>
<feColorMatrix in="SourceAlpha" type="matrix" values="0 0 0 0 0 0 0 0 0 0 0 0 0 0 0 0 0 0 127 0" result="hardAlpha"/>
<feOffset dx="-0.847252"/>
<feGaussianBlur stdDeviation="0.423626"/>
<feComposite in2="hardAlpha" operator="arithmetic" k2="-1" k3="1"/>
<feColorMatrix type="matrix" values="0 0 0 0 0 0 0 0 0 0 0 0 0 0 0 0 0 0 0.25 0"/>
<feBlend mode="normal" in2="shape" result="effect1_innerShadow_1776_31956"/>
</filter>
<filter id="filter6_i_1776_31956" x="40.2367" y="7.15942" width="18.3797" height="24.9557" filterUnits="userSpaceOnUse" color-interpolation-filters="sRGB">
<feFlood flood-opacity="0" result="BackgroundImageFix"/>
<feBlend mode="normal" in="SourceGraphic" in2="BackgroundImageFix" result="shape"/>
<feColorMatrix in="SourceAlpha" type="matrix" values="0 0 0 0 0 0 0 0 0 0 0 0 0 0 0 0 0 0 127 0" result="hardAlpha"/>
<feOffset dx="-0.847252"/>
<feGaussianBlur stdDeviation="0.423626"/>
<feComposite in2="hardAlpha" operator="arithmetic" k2="-1" k3="1"/>
<feColorMatrix type="matrix" values="0 0 0 0 0 0 0 0 0 0 0 0 0 0 0 0 0 0 0.25 0"/>
<feBlend mode="normal" in2="shape" result="effect1_innerShadow_1776_31956"/>
</filter>
<linearGradient id="paint0_linear_1776_31956" x1="39.7984" y1="59.9827" x2="45.6333" y2="66.0681" gradientUnits="userSpaceOnUse">
<stop stop-color="#9BCDFF"/>
<stop offset="1" stop-color="#6BB1F7"/>
</linearGradient>
<linearGradient id="paint1_linear_1776_31956" x1="29.6863" y1="50.327" x2="53.7096" y2="55.0206" gradientUnits="userSpaceOnUse">
<stop stop-color="#9FCFFF"/>
<stop offset="1" stop-color="#5FAFFF"/>
</linearGradient>
<linearGradient id="paint2_linear_1776_31956" x1="30.9659" y1="22.9465" x2="35.171" y2="36.7634" gradientUnits="userSpaceOnUse">
<stop stop-color="#74A1CD"/>
<stop offset="1" stop-color="#6C92B7"/>
</linearGradient>
<linearGradient id="paint3_linear_1776_31956" x1="25.2991" y1="32.1315" x2="47.5809" y2="47.6589" gradientUnits="userSpaceOnUse">
<stop stop-color="white"/>
<stop offset="1" stop-color="#FFF8E5"/>
</linearGradient>
<linearGradient id="paint4_linear_1776_31956" x1="25.2991" y1="32.1315" x2="47.5809" y2="47.6589" gradientUnits="userSpaceOnUse">
<stop stop-color="white"/>
<stop offset="1" stop-color="#FFF8E5"/>
</linearGradient>
<linearGradient id="paint5_linear_1776_31956" x1="38.4432" y1="33.7602" x2="46.5767" y2="34.6294" gradientUnits="userSpaceOnUse">
<stop stop-color="#DFD5B9"/>
<stop offset="1" stop-color="#EDE4CC" stop-opacity="0"/>
</linearGradient>
<linearGradient id="paint6_linear_1776_31956" x1="41.7428" y1="32.2337" x2="49.9014" y2="32.8198" gradientUnits="userSpaceOnUse">
<stop stop-color="#DFD5B9"/>
<stop offset="1" stop-color="#EDE4CC" stop-opacity="0"/>
</linearGradient>
</defs>
</svg>
