<svg width="59" height="61" viewBox="0 0 59 61" fill="none" xmlns="http://www.w3.org/2000/svg">
<g filter="url(#filter0_ii_3329_7650)">
<path d="M45.1242 50.8143C40.3503 55.1553 34.1415 56.1738 30.108 56.0244C28.3013 55.9574 26.72 54.9528 25.5304 53.5915L25.5297 53.5907C24.8275 52.7872 24.0182 51.8611 24.4075 50.8649C25.0761 49.1542 27.6792 46.3357 34.9658 44.053C40.8742 42.202 44.2203 42.4861 45.9054 43.2888C47.023 43.8211 47.2009 45.1847 47.0989 46.4214C46.9623 48.0787 46.3546 49.6955 45.1242 50.8143Z" fill="url(#paint0_linear_3329_7650)"/>
</g>
<g filter="url(#filter1_iiii_3329_7650)">
<path d="M9.77009 44.5358L8.77649 42.9144C6.57318 39.319 3.99278 35.519 4.68504 31.352C5.61205 25.7719 10.1353 17.9276 24.0768 13.9052C35.9381 10.483 43.3388 13.1363 47.4121 16.7605C50.5272 19.5321 51.2132 23.942 51.6053 28.1006L51.7788 29.9412C52.2176 34.5943 51.6974 39.4413 49.0471 43.2948C40.9163 55.1165 28.4412 55.5456 19.7887 53.1084C15.4015 51.8726 12.1532 48.4247 9.77009 44.5358Z" fill="url(#paint1_linear_3329_7650)"/>
</g>
<g filter="url(#filter2_f_3329_7650)">
<path d="M22.9617 15.9615C8.84831 20.214 6.46575 30.2918 7.15839 34.2309L47.61 20.9807C40.6364 10.6356 28.8906 14.175 23.0228 15.9431L22.9617 15.9615Z" fill="url(#paint2_linear_3329_7650)"/>
</g>
<path d="M26.0402 14.8727C27.2402 14.0908 28.6437 14.0907 29.205 14.863C29.4784 14.6203 29.811 14.4059 30.1895 14.2406C31.5237 13.6578 32.9232 13.906 33.3152 14.7951C33.3915 14.968 33.4233 15.1524 33.4164 15.3416C33.6452 15.3306 33.8682 15.3378 34.0824 15.3626C34.2777 15.2345 34.4932 15.1203 34.7256 15.0247C36.0689 14.4721 37.4702 14.749 37.8557 15.6434C37.8616 15.657 37.8662 15.6711 37.8715 15.6849C38.3855 15.2764 38.9676 15.1165 39.4668 15.3098C40.0313 15.5284 40.356 16.1466 40.3876 16.9083C41.0725 16.816 41.6869 16.9787 42.0363 17.3944C42.2839 17.1681 42.5729 17.0319 42.8845 17.0169C43.6815 16.9788 44.3762 17.7458 44.6206 18.8302C45.5047 19.239 46.1408 19.9148 46.3423 20.7871C46.781 22.6859 44.9972 24.7929 42.3581 25.493C42.2896 25.5112 42.2208 25.5273 42.1525 25.5432C41.2874 28.3047 38.4921 30.9628 34.7025 32.2657C34.1656 32.4503 33.6293 32.6 33.0978 32.7173C32.5823 34.0626 31.1356 35.2786 29.2525 35.7782C27.8175 36.1588 26.4253 36.0442 25.3829 35.5561C24.3642 36.0923 23.2296 36.5399 22.011 36.8632C18.321 37.842 14.8161 37.4367 12.7098 36.0225C12.5831 36.0783 12.4527 36.1297 12.3189 36.1757C10.1314 36.9278 7.84951 36.0446 7.22188 34.2033C6.69667 32.6622 7.49694 30.9385 9.05419 29.9763C8.15702 28.6564 8.59029 26.6399 10.1775 25.0633C9.90325 24.6155 9.82607 24.1319 10.0089 23.7062C10.2962 23.0371 11.1443 22.6997 12.1125 22.7882C12.469 21.9301 13.3523 21.137 14.5296 20.7322C14.8817 20.6111 15.2345 20.534 15.5773 20.4972C15.5538 20.3637 15.5515 20.2276 15.5734 20.0907C15.7183 19.1866 16.8503 18.5721 18.1658 18.6445C18.4348 18.0078 19.1207 17.4078 20.0316 17.0946C20.9866 16.7664 21.9381 16.84 22.5363 17.2227C22.6331 17.1525 22.7339 17.0851 22.8381 17.0206C23.4655 16.632 24.1323 16.4105 24.7558 16.3499C24.9718 15.8144 25.4184 15.2778 26.0402 14.8727Z" fill="url(#paint3_linear_3329_7650)"/>
<path d="M9.48702 34.6896C8.72523 34.9405 8.58608 35.8901 9.31995 36.2138C17.2784 39.724 39.2164 38.0893 46.1227 22.6218L9.48702 34.6896Z" fill="url(#paint4_linear_3329_7650)"/>
<ellipse cx="1.02812" cy="1.90658" rx="1.02812" ry="1.90658" transform="matrix(-0.0563054 0.998414 -0.995979 -0.0895841 22.8613 23.0176)" fill="#F7EEDB"/>
<ellipse cx="1.02812" cy="1.90658" rx="1.02812" ry="1.90658" transform="matrix(-0.0563054 0.998414 -0.995979 -0.0895841 28.0918 14.6867)" fill="#F9F5EB"/>
<ellipse cx="1.02682" cy="1.90923" rx="1.02682" ry="1.90923" transform="matrix(0.534226 0.845342 0.825101 -0.564986 15.0078 19.4334)" fill="#F9F5EB"/>
<ellipse cx="1.02518" cy="1.91176" rx="1.02518" ry="1.91176" transform="matrix(0.801803 0.597589 -0.620117 0.78451 16.9609 25.2325)" fill="#F9F5EB"/>
<ellipse cx="1.02782" cy="1.90697" rx="1.02782" ry="1.90697" transform="matrix(0.261811 0.965119 -0.972673 0.232181 13.6836 32.5536)" fill="#F7EEDB"/>
<g filter="url(#filter3_f_3329_7650)">
<path d="M38.0649 29.3221L30.1987 27.2778L30.5934 25.7972L38.7982 27.7691L38.0649 29.3221Z" fill="url(#paint5_linear_3329_7650)"/>
</g>
<g filter="url(#filter4_f_3329_7650)">
<path d="M41.4488 27.5269L33.5165 25.7596L33.8594 24.266L42.1278 25.9491L41.4488 27.5269Z" fill="url(#paint6_linear_3329_7650)"/>
</g>
<g filter="url(#filter5_i_3329_7650)">
<path d="M44.3026 1.5953C44.4488 1.32589 44.3293 1.0321 44.037 0.942346L42.4277 0.448124C42.1327 0.357507 41.7773 0.510258 41.6419 0.785914L29.317 25.8807C29.1868 26.1459 29.3091 26.4265 29.5929 26.5136L30.0971 26.6685C30.3838 26.7565 30.7292 26.6149 30.8726 26.3507L44.3026 1.5953Z" fill="#5E6973"/>
</g>
<g filter="url(#filter6_i_3329_7650)">
<path d="M47.9706 0.470362C48.1318 0.211626 48.497 0.0899526 48.7822 0.19993L50.3214 0.793414C50.6093 0.904439 50.703 1.20787 50.5286 1.46448L34.6521 24.8229C34.4843 25.0699 34.1298 25.1815 33.8527 25.0746L33.379 24.892C33.0992 24.7841 33.0015 24.4934 33.1596 24.2396L47.9706 0.470362Z" fill="#5E6973"/>
</g>
<defs>
<filter id="filter0_ii_3329_7650" x="22.6121" y="42.2438" width="24.5119" height="13.7944" filterUnits="userSpaceOnUse" color-interpolation-filters="sRGB">
<feFlood flood-opacity="0" result="BackgroundImageFix"/>
<feBlend mode="normal" in="SourceGraphic" in2="BackgroundImageFix" result="shape"/>
<feColorMatrix in="SourceAlpha" type="matrix" values="0 0 0 0 0 0 0 0 0 0 0 0 0 0 0 0 0 0 127 0" result="hardAlpha"/>
<feOffset dx="-22.8758"/>
<feGaussianBlur stdDeviation="0.847252"/>
<feComposite in2="hardAlpha" operator="arithmetic" k2="-1" k3="1"/>
<feColorMatrix type="matrix" values="0 0 0 0 0.137838 0 0 0 0 0.477901 0 0 0 0 0.817965 0 0 0 1 0"/>
<feBlend mode="normal" in2="shape" result="effect1_innerShadow_3329_7650"/>
<feColorMatrix in="SourceAlpha" type="matrix" values="0 0 0 0 0 0 0 0 0 0 0 0 0 0 0 0 0 0 127 0" result="hardAlpha"/>
<feOffset dx="-0.423626" dy="-0.423626"/>
<feGaussianBlur stdDeviation="1.90632"/>
<feComposite in2="hardAlpha" operator="arithmetic" k2="-1" k3="1"/>
<feColorMatrix type="matrix" values="0 0 0 0 0.762357 0 0 0 0 0.881179 0 0 0 0 1 0 0 0 1 0"/>
<feBlend mode="normal" in2="effect1_innerShadow_3329_7650" result="effect2_innerShadow_3329_7650"/>
</filter>
<filter id="filter1_iiii_3329_7650" x="2.11328" y="11.8949" width="53.7444" height="42.4033" filterUnits="userSpaceOnUse" color-interpolation-filters="sRGB">
<feFlood flood-opacity="0" result="BackgroundImageFix"/>
<feBlend mode="normal" in="SourceGraphic" in2="BackgroundImageFix" result="shape"/>
<feColorMatrix in="SourceAlpha" type="matrix" values="0 0 0 0 0 0 0 0 0 0 0 0 0 0 0 0 0 0 127 0" result="hardAlpha"/>
<feOffset dx="-6.75556"/>
<feGaussianBlur stdDeviation="1.22852"/>
<feComposite in2="hardAlpha" operator="arithmetic" k2="-1" k3="1"/>
<feColorMatrix type="matrix" values="0 0 0 0 0.37831 0 0 0 0 0.683371 0 0 0 0 0.988432 0 0 0 1 0"/>
<feBlend mode="normal" in2="shape" result="effect1_innerShadow_3329_7650"/>
<feColorMatrix in="SourceAlpha" type="matrix" values="0 0 0 0 0 0 0 0 0 0 0 0 0 0 0 0 0 0 127 0" result="hardAlpha"/>
<feOffset dx="-0.844444"/>
<feGaussianBlur stdDeviation="1.26667"/>
<feComposite in2="hardAlpha" operator="arithmetic" k2="-1" k3="1"/>
<feColorMatrix type="matrix" values="0 0 0 0 0.353084 0 0 0 0 0.676542 0 0 0 0 1 0 0 0 1 0"/>
<feBlend mode="normal" in2="effect1_innerShadow_3329_7650" result="effect2_innerShadow_3329_7650"/>
<feColorMatrix in="SourceAlpha" type="matrix" values="0 0 0 0 0 0 0 0 0 0 0 0 0 0 0 0 0 0 127 0" result="hardAlpha"/>
<feOffset dx="8" dy="-0.423626"/>
<feGaussianBlur stdDeviation="1.96986"/>
<feComposite in2="hardAlpha" operator="arithmetic" k2="-1" k3="1"/>
<feColorMatrix type="matrix" values="0 0 0 0 0.55773 0 0 0 0 0.778865 0 0 0 0 1 0 0 0 1 0"/>
<feBlend mode="normal" in2="effect2_innerShadow_3329_7650" result="effect3_innerShadow_3329_7650"/>
<feColorMatrix in="SourceAlpha" type="matrix" values="0 0 0 0 0 0 0 0 0 0 0 0 0 0 0 0 0 0 127 0" result="hardAlpha"/>
<feOffset dx="1.27088" dy="-0.423626"/>
<feGaussianBlur stdDeviation="2.54176"/>
<feComposite in2="hardAlpha" operator="arithmetic" k2="-1" k3="1"/>
<feColorMatrix type="matrix" values="0 0 0 0 0.363938 0 0 0 0 0.633798 0 0 0 0 0.903658 0 0 0 1 0"/>
<feBlend mode="normal" in2="effect3_innerShadow_3329_7650" result="effect4_innerShadow_3329_7650"/>
</filter>
<filter id="filter2_f_3329_7650" x="5.35725" y="12.2071" width="43.9476" height="23.7183" filterUnits="userSpaceOnUse" color-interpolation-filters="sRGB">
<feFlood flood-opacity="0" result="BackgroundImageFix"/>
<feBlend mode="normal" in="SourceGraphic" in2="BackgroundImageFix" result="shape"/>
<feGaussianBlur stdDeviation="0.847252" result="effect1_foregroundBlur_3329_7650"/>
</filter>
<filter id="filter3_f_3329_7650" x="29.3548" y="24.9527" width="10.2875" height="5.21379" filterUnits="userSpaceOnUse" color-interpolation-filters="sRGB">
<feFlood flood-opacity="0" result="BackgroundImageFix"/>
<feBlend mode="normal" in="SourceGraphic" in2="BackgroundImageFix" result="shape"/>
<feGaussianBlur stdDeviation="0.422222" result="effect1_foregroundBlur_3329_7650"/>
</filter>
<filter id="filter4_f_3329_7650" x="32.6722" y="23.4216" width="10.3002" height="4.94972" filterUnits="userSpaceOnUse" color-interpolation-filters="sRGB">
<feFlood flood-opacity="0" result="BackgroundImageFix"/>
<feBlend mode="normal" in="SourceGraphic" in2="BackgroundImageFix" result="shape"/>
<feGaussianBlur stdDeviation="0.422222" result="effect1_foregroundBlur_3329_7650"/>
</filter>
<filter id="filter5_i_3329_7650" x="28.4174" y="0.421982" width="15.9478" height="26.2726" filterUnits="userSpaceOnUse" color-interpolation-filters="sRGB">
<feFlood flood-opacity="0" result="BackgroundImageFix"/>
<feBlend mode="normal" in="SourceGraphic" in2="BackgroundImageFix" result="shape"/>
<feColorMatrix in="SourceAlpha" type="matrix" values="0 0 0 0 0 0 0 0 0 0 0 0 0 0 0 0 0 0 127 0" result="hardAlpha"/>
<feOffset dx="-0.847252"/>
<feGaussianBlur stdDeviation="0.423626"/>
<feComposite in2="hardAlpha" operator="arithmetic" k2="-1" k3="1"/>
<feColorMatrix type="matrix" values="0 0 0 0 0 0 0 0 0 0 0 0 0 0 0 0 0 0 0.25 0"/>
<feBlend mode="normal" in2="shape" result="effect1_innerShadow_3329_7650"/>
</filter>
<filter id="filter6_i_3329_7650" x="32.2367" y="0.159409" width="18.3795" height="24.9557" filterUnits="userSpaceOnUse" color-interpolation-filters="sRGB">
<feFlood flood-opacity="0" result="BackgroundImageFix"/>
<feBlend mode="normal" in="SourceGraphic" in2="BackgroundImageFix" result="shape"/>
<feColorMatrix in="SourceAlpha" type="matrix" values="0 0 0 0 0 0 0 0 0 0 0 0 0 0 0 0 0 0 127 0" result="hardAlpha"/>
<feOffset dx="-0.847252"/>
<feGaussianBlur stdDeviation="0.423626"/>
<feComposite in2="hardAlpha" operator="arithmetic" k2="-1" k3="1"/>
<feColorMatrix type="matrix" values="0 0 0 0 0 0 0 0 0 0 0 0 0 0 0 0 0 0 0.25 0"/>
<feBlend mode="normal" in2="shape" result="effect1_innerShadow_3329_7650"/>
</filter>
<linearGradient id="paint0_linear_3329_7650" x1="31.7984" y1="52.9827" x2="37.6333" y2="59.0681" gradientUnits="userSpaceOnUse">
<stop stop-color="#9BCDFF"/>
<stop offset="1" stop-color="#6BB1F7"/>
</linearGradient>
<linearGradient id="paint1_linear_3329_7650" x1="21.6863" y1="43.327" x2="45.7096" y2="48.0206" gradientUnits="userSpaceOnUse">
<stop stop-color="#9FCFFF"/>
<stop offset="1" stop-color="#5FAFFF"/>
</linearGradient>
<linearGradient id="paint2_linear_3329_7650" x1="22.9659" y1="15.9465" x2="27.171" y2="29.7634" gradientUnits="userSpaceOnUse">
<stop stop-color="#74A1CD"/>
<stop offset="1" stop-color="#6C92B7"/>
</linearGradient>
<linearGradient id="paint3_linear_3329_7650" x1="17.2994" y1="25.1315" x2="39.5812" y2="40.6589" gradientUnits="userSpaceOnUse">
<stop stop-color="white"/>
<stop offset="1" stop-color="#FFF8E5"/>
</linearGradient>
<linearGradient id="paint4_linear_3329_7650" x1="17.2994" y1="25.1315" x2="39.5812" y2="40.6589" gradientUnits="userSpaceOnUse">
<stop stop-color="white"/>
<stop offset="1" stop-color="#FFF8E5"/>
</linearGradient>
<linearGradient id="paint5_linear_3329_7650" x1="30.4432" y1="26.7602" x2="38.5767" y2="27.6295" gradientUnits="userSpaceOnUse">
<stop stop-color="#DFD5B9"/>
<stop offset="1" stop-color="#EDE4CC" stop-opacity="0"/>
</linearGradient>
<linearGradient id="paint6_linear_3329_7650" x1="33.7428" y1="25.2337" x2="41.9014" y2="25.8198" gradientUnits="userSpaceOnUse">
<stop stop-color="#DFD5B9"/>
<stop offset="1" stop-color="#EDE4CC" stop-opacity="0"/>
</linearGradient>
</defs>
</svg>
