<svg width="28" height="28" viewBox="0 0 28 28" fill="none" xmlns="http://www.w3.org/2000/svg">
<path d="M22.4001 6.53345H11.1138C10.5755 6.53345 10.0634 6.76581 9.70896 7.17091L4.80895 12.7709C4.19315 13.4747 4.19315 14.5255 4.80896 15.2293L9.70896 20.8293C10.0634 21.2344 10.5755 21.4668 11.1138 21.4668H22.4001C22.8951 21.4668 23.3699 21.2701 23.72 20.92C24.0701 20.57 24.2667 20.0952 24.2667 19.6001V8.40011C24.2667 7.90504 24.0701 7.43025 23.72 7.08018C23.3699 6.73011 22.8951 6.53345 22.4001 6.53345Z" stroke="#73787E" stroke-width="1.86667" stroke-linecap="round" stroke-linejoin="round"/>
<path d="M19.6 11.2L14 16.8" stroke="#73787E" stroke-width="1.49333" stroke-linecap="round" stroke-linejoin="round"/>
<path d="M14 11.2L19.6 16.8" stroke="#73787E" stroke-width="1.49333" stroke-linecap="round" stroke-linejoin="round"/>
</svg>
