<svg width="30" height="30" viewBox="0 0 30 30" fill="none" xmlns="http://www.w3.org/2000/svg">
<circle cx="15" cy="14.8691" r="10" fill="#9FA4A8" stroke="#9FA4A8" stroke-width="2"/>
<path d="M10.2002 12L12.1472 18.26C12.1771 18.3563 12.2398 18.4412 12.3261 18.5024C12.4123 18.5636 12.5177 18.5977 12.6266 18.5999C12.7356 18.602 12.8425 18.5721 12.9315 18.5144C13.0206 18.4567 13.0872 18.3743 13.1216 18.2793L15.0002 13.1023L16.8788 18.2793C16.9132 18.3743 16.9798 18.4567 17.0689 18.5144C17.1579 18.5721 17.2648 18.602 17.3737 18.5999C17.4827 18.5977 17.5881 18.5636 17.6743 18.5024C17.7606 18.4412 17.8233 18.3563 17.8532 18.26L19.8002 12" stroke="white" stroke-width="1.6" stroke-linecap="round" stroke-linejoin="round"/>
<path d="M10.5 14.4004H9M21 14.4004L19.5 14.4004" stroke="white" stroke-width="1.6" stroke-linecap="round" stroke-linejoin="round"/>
</svg>
