<svg width="32" height="32" viewBox="0 0 32 32" fill="none" xmlns="http://www.w3.org/2000/svg">
<path d="M27.2556 18.3899L29.4716 7.42112C29.6315 6.62916 29.0965 5.875 28.3745 5.875H9.96288L9.53322 3.51197C9.42616 2.92298 8.96547 2.5 8.43105 2.5H3.625C3.00367 2.5 2.5 3.06663 2.5 3.76563V4.60938C2.5 5.30837 3.00367 5.875 3.625 5.875H6.90077L10.1936 23.9858C9.40586 24.4955 8.875 25.4512 8.875 26.5469C8.875 28.1779 10.0503 29.5 11.5 29.5C12.9498 29.5 14.125 28.1779 14.125 26.5469C14.125 25.7203 13.8228 24.9736 13.3364 24.4375H23.1636C22.6772 24.9736 22.375 25.7203 22.375 26.5469C22.375 28.1779 23.5503 29.5 25 29.5C26.4498 29.5 27.625 28.1779 27.625 26.5469C27.625 25.3777 27.0209 24.3673 26.1447 23.8888L26.4033 22.6086C26.5633 21.8167 26.0283 21.0625 25.3063 21.0625H12.7242L12.4174 19.375H26.1586C26.6839 19.375 27.1392 18.9661 27.2556 18.3899Z" fill="url(#paint0_linear_1776_32043)"/>
<defs>
<linearGradient id="paint0_linear_1776_32043" x1="7.11655" y1="3.85781" x2="25.0023" y2="35.4588" gradientUnits="userSpaceOnUse">
<stop stop-color="#49E9B7"/>
<stop offset="1" stop-color="#43CBA1"/>
</linearGradient>
</defs>
</svg>
