<svg width="30" height="30" viewBox="0 0 30 30" fill="none" xmlns="http://www.w3.org/2000/svg">
<path d="M21 11C21 9.4087 20.3679 7.88258 19.2426 6.75736C18.1174 5.63214 16.5913 5 15 5C13.4087 5 11.8826 5.63214 10.7574 6.75736C9.63214 7.88258 9 9.4087 9 11C9 18 6 20 6 20H24C24 20 21 18 21 11Z" stroke="#030303" stroke-width="2" stroke-linecap="round" stroke-linejoin="round"/>
<path d="M16.73 24C16.5542 24.3031 16.3019 24.5547 15.9982 24.7295C15.6946 24.9044 15.3504 24.9965 15 24.9965C14.6496 24.9965 14.3054 24.9044 14.0018 24.7295C13.6982 24.5547 13.4458 24.3031 13.27 24" stroke="#030303" stroke-width="2" stroke-linecap="round" stroke-linejoin="round"/>
</svg>
