<svg width="32" height="32" viewBox="0 0 32 32" fill="none" xmlns="http://www.w3.org/2000/svg">
<path d="M15.2921 29.7904C15.6828 30.1821 16.3172 30.1821 16.7079 29.7904L28.2976 18.174C28.9265 17.5437 28.4801 16.4677 27.5897 16.4677L22.6 16.4677C22.0477 16.4677 21.6 16.02 21.6 15.4677L21.6 2.5C21.6 1.94772 21.1523 1.5 20.6 1.5L11.4 1.5C10.8477 1.5 10.4 1.94771 10.4 2.5L10.4 15.4677C10.4 16.02 9.95229 16.4677 9.4 16.4677L4.41029 16.4677C3.51994 16.4677 3.07352 17.5437 3.70237 18.174L15.2921 29.7904Z" fill="url(#paint0_linear_1776_32042)"/>
<defs>
<linearGradient id="paint0_linear_1776_32042" x1="16" y1="1.5" x2="16" y2="30.5" gradientUnits="userSpaceOnUse">
<stop stop-color="#13278A" stop-opacity="0"/>
<stop offset="1" stop-color="#13278A"/>
</linearGradient>
</defs>
</svg>
