<svg width="30" height="30" viewBox="0 0 30 30" fill="none" xmlns="http://www.w3.org/2000/svg">
<path d="M20.1298 5.8356C20.3947 5.57068 20.7092 5.36054 21.0553 5.21716C21.4015 5.07379 21.7725 5 22.1471 5C22.5217 5 22.8927 5.07379 23.2389 5.21716C23.585 5.36054 23.8995 5.57068 24.1644 5.8356C24.4293 6.10051 24.6395 6.41501 24.7828 6.76114C24.9262 7.10727 25 7.47825 25 7.8529C25 8.22755 24.9262 8.59853 24.7828 8.94466C24.6395 9.29079 24.4293 9.60529 24.1644 9.87021L10.5476 23.487L5 25L6.51298 19.4524L20.1298 5.8356Z" stroke="#9FA4A8" stroke-width="2" stroke-linecap="round" stroke-linejoin="round"/>
</svg>
