<svg width="24" height="24" viewBox="0 0 24 24" fill="none" xmlns="http://www.w3.org/2000/svg">
<g filter="url(#filter0_i_2494_2115)">
<circle cx="12" cy="12" r="12" fill="url(#paint0_linear_2494_2115)"/>
</g>
<path d="M8.41797 10.9236C8.41797 10.4259 8.8214 10.0225 9.31907 10.0225C9.81673 10.0225 10.2202 10.4259 10.2202 10.9236V12.6861C10.2202 13.1837 9.81673 13.5872 9.31907 13.5872C8.8214 13.5872 8.41797 13.1837 8.41797 12.6861V10.9236Z" fill="#5A0E0E"/>
<path d="M10.209 9.19528C9.01297 9.51714 7.46869 9.19528 6.4057 7.4707" stroke="#5A0E0E" stroke-width="0.716418" stroke-linecap="round"/>
<path d="M13.791 10.9646C13.791 10.4669 14.1945 10.0635 14.6921 10.0635C15.1898 10.0635 15.5932 10.4669 15.5932 10.9646V12.7271C15.5932 13.2247 15.1898 13.6282 14.6921 13.6282C14.1945 13.6282 13.791 13.2247 13.791 12.7271V10.9646Z" fill="#5A0E0E"/>
<path d="M13.791 9.19528C14.987 9.51714 16.5313 9.19528 17.5943 7.4707" stroke="#5A0E0E" stroke-width="0.716418" stroke-linecap="round"/>
<path d="M10.0762 14.8047C11.2666 14.4829 12.8038 14.8047 13.8618 16.5293" stroke="#5A0E0E" stroke-width="0.716418" stroke-linecap="round"/>
<defs>
<filter id="filter0_i_2494_2115" x="-0.358209" y="-0.358209" width="24.3582" height="24.3582" filterUnits="userSpaceOnUse" color-interpolation-filters="sRGB">
<feFlood flood-opacity="0" result="BackgroundImageFix"/>
<feBlend mode="normal" in="SourceGraphic" in2="BackgroundImageFix" result="shape"/>
<feColorMatrix in="SourceAlpha" type="matrix" values="0 0 0 0 0 0 0 0 0 0 0 0 0 0 0 0 0 0 127 0" result="hardAlpha"/>
<feMorphology radius="0.358209" operator="erode" in="SourceAlpha" result="effect1_innerShadow_2494_2115"/>
<feOffset dx="-0.358209" dy="-0.358209"/>
<feGaussianBlur stdDeviation="0.716418"/>
<feComposite in2="hardAlpha" operator="arithmetic" k2="-1" k3="1"/>
<feColorMatrix type="matrix" values="0 0 0 0 1 0 0 0 0 1 0 0 0 0 1 0 0 0 0.32 0"/>
<feBlend mode="normal" in2="shape" result="effect1_innerShadow_2494_2115"/>
</filter>
<linearGradient id="paint0_linear_2494_2115" x1="12" y1="-6.92228e-09" x2="11.7313" y2="24.6269" gradientUnits="userSpaceOnUse">
<stop offset="0.0872123" stop-color="#FF8989"/>
<stop offset="0.969685" stop-color="#EE0808"/>
</linearGradient>
</defs>
</svg>
