<svg width="24" height="24" viewBox="0 0 24 24" fill="none" xmlns="http://www.w3.org/2000/svg">
<g filter="url(#filter0_i_2494_3545)">
<circle cx="12" cy="12" r="12" fill="url(#paint0_linear_2494_3545)"/>
</g>
<path d="M12 16.4775C10.1788 16.4775 8.62774 15.4931 8.04142 14.1154C7.77028 13.4783 8.35233 12.8954 9.04475 12.8954H14.9552C15.6476 12.8954 16.2297 13.4783 15.9585 14.1154C15.3722 15.4931 13.8212 16.4775 12 16.4775Z" fill="#632742"/>
<path d="M15.4916 7.53125L16.1004 8.76916L17.4618 8.96889L16.4767 9.93193L16.7092 11.2924L15.4916 10.6498L14.2741 11.2924L14.5066 9.93193L13.5215 8.96889L14.8829 8.76916L15.4916 7.53125Z" fill="#632742"/>
<path d="M8.41741 7.52246L9.02619 8.76037L10.3876 8.9601L9.40249 9.92314L9.63497 11.2837L8.41741 10.641L7.19986 11.2837L7.43234 9.92314L6.44727 8.9601L7.80864 8.76037L8.41741 7.52246Z" fill="#632742"/>
<defs>
<filter id="filter0_i_2494_3545" x="-0.358209" y="-0.358209" width="24.3582" height="24.3582" filterUnits="userSpaceOnUse" color-interpolation-filters="sRGB">
<feFlood flood-opacity="0" result="BackgroundImageFix"/>
<feBlend mode="normal" in="SourceGraphic" in2="BackgroundImageFix" result="shape"/>
<feColorMatrix in="SourceAlpha" type="matrix" values="0 0 0 0 0 0 0 0 0 0 0 0 0 0 0 0 0 0 127 0" result="hardAlpha"/>
<feMorphology radius="0.358209" operator="erode" in="SourceAlpha" result="effect1_innerShadow_2494_3545"/>
<feOffset dx="-0.358209" dy="-0.358209"/>
<feGaussianBlur stdDeviation="0.716418"/>
<feComposite in2="hardAlpha" operator="arithmetic" k2="-1" k3="1"/>
<feColorMatrix type="matrix" values="0 0 0 0 1 0 0 0 0 1 0 0 0 0 1 0 0 0 0.32 0"/>
<feBlend mode="normal" in2="shape" result="effect1_innerShadow_2494_3545"/>
</filter>
<linearGradient id="paint0_linear_2494_3545" x1="12" y1="0" x2="12" y2="24" gradientUnits="userSpaceOnUse">
<stop offset="0.085521" stop-color="#FFA0CB"/>
<stop offset="1" stop-color="#FF4F9E"/>
</linearGradient>
</defs>
</svg>
