<svg width="28" height="28" viewBox="0 0 28 28" fill="none" xmlns="http://www.w3.org/2000/svg">
<g filter="url(#filter0_i_1998_2408)">
<circle cx="14" cy="14" r="14" fill="url(#paint0_linear_1998_2408)"/>
</g>
<path d="M20.4861 10.2952C20.3636 10.1781 20.2181 10.0852 20.058 10.0218C19.8978 9.95841 19.7262 9.92578 19.5529 9.92578C19.3795 9.92578 19.2079 9.95841 19.0478 10.0218C18.8876 10.0852 18.7422 10.1781 18.6196 10.2952L18.3653 10.5382L18.111 10.2952C17.8635 10.0588 17.5278 9.9259 17.1777 9.9259C16.8277 9.9259 16.492 10.0588 16.2445 10.2952C15.997 10.5317 15.8579 10.8525 15.8579 11.1869C15.8579 11.5214 15.997 11.8421 16.2445 12.0786L16.4988 12.3216L18.3653 14.1049L20.2318 12.3216L20.4861 12.0786C20.6087 11.9615 20.706 11.8225 20.7723 11.6695C20.8387 11.5165 20.8728 11.3525 20.8728 11.1869C20.8728 11.0213 20.8387 10.8573 20.7723 10.7043C20.706 10.5513 20.6087 10.4123 20.4861 10.2952Z" fill="#5A0E0E"/>
<path d="M11.8426 10.2952C11.72 10.1781 11.5746 10.0852 11.4144 10.0218C11.2543 9.95841 11.0827 9.92578 10.9093 9.92578C10.736 9.92578 10.5644 9.95841 10.4042 10.0218C10.2441 10.0852 10.0986 10.1781 9.97606 10.2952L9.72175 10.5382L9.46745 10.2952C9.21993 10.0588 8.88423 9.9259 8.53419 9.9259C8.18415 9.9259 7.84844 10.0588 7.60092 10.2952C7.35341 10.5317 7.21436 10.8525 7.21436 11.1869C7.21436 11.5214 7.35341 11.8421 7.60092 12.0786L7.85523 12.3216L9.72175 14.1049L11.5883 12.3216L11.8426 12.0786C11.9652 11.9615 12.0624 11.8225 12.1288 11.6695C12.1951 11.5165 12.2293 11.3525 12.2293 11.1869C12.2293 11.0213 12.1951 10.8573 12.1288 10.7043C12.0624 10.5513 11.9652 10.4123 11.8426 10.2952Z" fill="#5A0E0E"/>
<circle cx="14.1454" cy="17.8658" r="1.04478" fill="#5A0E0E"/>
<defs>
<filter id="filter0_i_1998_2408" x="-0.41791" y="-0.41791" width="28.4179" height="28.4179" filterUnits="userSpaceOnUse" color-interpolation-filters="sRGB">
<feFlood flood-opacity="0" result="BackgroundImageFix"/>
<feBlend mode="normal" in="SourceGraphic" in2="BackgroundImageFix" result="shape"/>
<feColorMatrix in="SourceAlpha" type="matrix" values="0 0 0 0 0 0 0 0 0 0 0 0 0 0 0 0 0 0 127 0" result="hardAlpha"/>
<feMorphology radius="0.41791" operator="erode" in="SourceAlpha" result="effect1_innerShadow_1998_2408"/>
<feOffset dx="-0.41791" dy="-0.41791"/>
<feGaussianBlur stdDeviation="0.835821"/>
<feComposite in2="hardAlpha" operator="arithmetic" k2="-1" k3="1"/>
<feColorMatrix type="matrix" values="0 0 0 0 1 0 0 0 0 1 0 0 0 0 1 0 0 0 0.32 0"/>
<feBlend mode="normal" in2="shape" result="effect1_innerShadow_1998_2408"/>
</filter>
<linearGradient id="paint0_linear_1998_2408" x1="14" y1="0" x2="14" y2="28" gradientUnits="userSpaceOnUse">
<stop offset="0.130123" stop-color="#FFA7B1"/>
<stop offset="1" stop-color="#FF6B7C"/>
</linearGradient>
</defs>
</svg>
